%FSLAX45Y45*%
G04 Gerber Fmt 4.5, Leading zero omitted, Abs format (unit mm)*
G04 Created by KiCad (PCBNEW 6.0.1-79c1e3a40b~116~ubuntu20.04.1) date 2022-02-01 23:30:45*
%MOMM*%
%LPD*%
G01*
G04 APERTURE LIST*
%TA.AperFunction,Profile*%
%ADD10C,0.100000*%
%TD*%
%ADD11C,0.200000*%
%ADD12C,0.040000*%
%ADD13C,0.090000*%
%ADD14C,0.100000*%
%ADD15C,0.110000*%
G04 APERTURE END LIST*
D10*
X10287000Y-8001000D02*
X13970000Y-8001000D01*
X10668000Y-14859000D02*
G75*
G03*
X10668000Y-14859000I-127000J0D01*
G01*
X13970000Y-8001000D02*
X13970000Y-15113000D01*
X13970000Y-15113000D02*
X10287000Y-15113000D01*
X13843000Y-9525000D02*
G75*
G03*
X13843000Y-9525000I-127000J0D01*
G01*
X10287000Y-15113000D02*
X10287000Y-8001000D01*
X10668000Y-11049000D02*
G75*
G03*
X10668000Y-11049000I-127000J0D01*
G01*
X11049000Y-13462000D02*
G75*
G03*
X11049000Y-13462000I0J0D01*
G01*
X13843000Y-14859000D02*
G75*
G03*
X13843000Y-14859000I-127000J0D01*
G01*
D11*
D12*
X10648000Y-9124000D02*
X10688000Y-9164000D01*
X10688000Y-9124000D02*
X10648000Y-9164000D01*
X10648000Y-9632000D02*
X10688000Y-9672000D01*
X10688000Y-9632000D02*
X10648000Y-9672000D01*
X11664000Y-9632000D02*
X11704000Y-9672000D01*
X11704000Y-9632000D02*
X11664000Y-9672000D01*
X11664000Y-10140000D02*
X11704000Y-10180000D01*
X11704000Y-10140000D02*
X11664000Y-10180000D01*
X11664000Y-11791000D02*
X11704000Y-11831000D01*
X11704000Y-11791000D02*
X11664000Y-11831000D01*
X11918000Y-8616000D02*
X11958000Y-8656000D01*
X11958000Y-8616000D02*
X11918000Y-8656000D01*
X11918000Y-8870000D02*
X11958000Y-8910000D01*
X11958000Y-8870000D02*
X11918000Y-8910000D01*
X12934000Y-9505000D02*
X12974000Y-9545000D01*
X12974000Y-9505000D02*
X12934000Y-9545000D01*
X13156000Y-8997000D02*
X13196000Y-9037000D01*
X13196000Y-8997000D02*
X13156000Y-9037000D01*
X13188000Y-9505000D02*
X13228000Y-9545000D01*
X13228000Y-9505000D02*
X13188000Y-9545000D01*
D13*
X10586000Y-8382000D02*
G75*
G03*
X10586000Y-8382000I-45000J0D01*
G01*
X10586000Y-10414000D02*
G75*
G03*
X10586000Y-10414000I-45000J0D01*
G01*
X10840000Y-8382000D02*
G75*
G03*
X10840000Y-8382000I-45000J0D01*
G01*
X10840000Y-10414000D02*
G75*
G03*
X10840000Y-10414000I-45000J0D01*
G01*
X12872000Y-14605000D02*
G75*
G03*
X12872000Y-14605000I-45000J0D01*
G01*
X13126000Y-14605000D02*
G75*
G03*
X13126000Y-14605000I-45000J0D01*
G01*
X13253000Y-8509000D02*
G75*
G03*
X13253000Y-8509000I-45000J0D01*
G01*
X13507000Y-8509000D02*
G75*
G03*
X13507000Y-8509000I-45000J0D01*
G01*
X13761000Y-8509000D02*
G75*
G03*
X13761000Y-8509000I-45000J0D01*
G01*
D14*
X11176000Y-8459000D02*
X11176000Y-8559000D01*
X11126000Y-8509000D02*
X11226000Y-8509000D01*
X11176000Y-8713000D02*
X11176000Y-8813000D01*
X11126000Y-8763000D02*
X11226000Y-8763000D01*
X11176000Y-8967000D02*
X11176000Y-9067000D01*
X11126000Y-9017000D02*
X11226000Y-9017000D01*
X11176000Y-9221000D02*
X11176000Y-9321000D01*
X11126000Y-9271000D02*
X11226000Y-9271000D01*
X11176000Y-9475000D02*
X11176000Y-9575000D01*
X11126000Y-9525000D02*
X11226000Y-9525000D01*
X11176000Y-9729000D02*
X11176000Y-9829000D01*
X11126000Y-9779000D02*
X11226000Y-9779000D01*
X11176000Y-9983000D02*
X11176000Y-10083000D01*
X11126000Y-10033000D02*
X11226000Y-10033000D01*
X11176000Y-10237000D02*
X11176000Y-10337000D01*
X11126000Y-10287000D02*
X11226000Y-10287000D01*
X11176000Y-10491000D02*
X11176000Y-10591000D01*
X11126000Y-10541000D02*
X11226000Y-10541000D01*
X11176000Y-10745000D02*
X11176000Y-10845000D01*
X11126000Y-10795000D02*
X11226000Y-10795000D01*
X11176000Y-10999000D02*
X11176000Y-11099000D01*
X11126000Y-11049000D02*
X11226000Y-11049000D01*
X11176000Y-11253000D02*
X11176000Y-11353000D01*
X11126000Y-11303000D02*
X11226000Y-11303000D01*
X11176000Y-11507000D02*
X11176000Y-11607000D01*
X11126000Y-11557000D02*
X11226000Y-11557000D01*
X11176000Y-11761000D02*
X11176000Y-11861000D01*
X11126000Y-11811000D02*
X11226000Y-11811000D01*
X11176000Y-12015000D02*
X11176000Y-12115000D01*
X11126000Y-12065000D02*
X11226000Y-12065000D01*
X12574000Y-13412000D02*
X12574000Y-13512000D01*
X12524000Y-13462000D02*
X12624000Y-13462000D01*
X12700000Y-8459000D02*
X12700000Y-8559000D01*
X12650000Y-8509000D02*
X12750000Y-8509000D01*
X12700000Y-8713000D02*
X12700000Y-8813000D01*
X12650000Y-8763000D02*
X12750000Y-8763000D01*
X12700000Y-8967000D02*
X12700000Y-9067000D01*
X12650000Y-9017000D02*
X12750000Y-9017000D01*
X12700000Y-9221000D02*
X12700000Y-9321000D01*
X12650000Y-9271000D02*
X12750000Y-9271000D01*
X12700000Y-9475000D02*
X12700000Y-9575000D01*
X12650000Y-9525000D02*
X12750000Y-9525000D01*
X12700000Y-9729000D02*
X12700000Y-9829000D01*
X12650000Y-9779000D02*
X12750000Y-9779000D01*
X12700000Y-9983000D02*
X12700000Y-10083000D01*
X12650000Y-10033000D02*
X12750000Y-10033000D01*
X12700000Y-10237000D02*
X12700000Y-10337000D01*
X12650000Y-10287000D02*
X12750000Y-10287000D01*
X12700000Y-10491000D02*
X12700000Y-10591000D01*
X12650000Y-10541000D02*
X12750000Y-10541000D01*
X12700000Y-10745000D02*
X12700000Y-10845000D01*
X12650000Y-10795000D02*
X12750000Y-10795000D01*
X12700000Y-10999000D02*
X12700000Y-11099000D01*
X12650000Y-11049000D02*
X12750000Y-11049000D01*
X12700000Y-11253000D02*
X12700000Y-11353000D01*
X12650000Y-11303000D02*
X12750000Y-11303000D01*
X12700000Y-11507000D02*
X12700000Y-11607000D01*
X12650000Y-11557000D02*
X12750000Y-11557000D01*
X12700000Y-11761000D02*
X12700000Y-11861000D01*
X12650000Y-11811000D02*
X12750000Y-11811000D01*
X12700000Y-12015000D02*
X12700000Y-12115000D01*
X12650000Y-12065000D02*
X12750000Y-12065000D01*
X13334000Y-13412000D02*
X13334000Y-13512000D01*
X13284000Y-13462000D02*
X13384000Y-13462000D01*
D15*
X11397891Y-14291891D02*
X11397891Y-14214109D01*
X11320109Y-14214109D01*
X11320109Y-14291891D01*
X11397891Y-14291891D01*
X11397891Y-14741891D02*
X11397891Y-14664109D01*
X11320109Y-14664109D01*
X11320109Y-14741891D01*
X11397891Y-14741891D01*
X12047891Y-14291891D02*
X12047891Y-14214109D01*
X11970109Y-14214109D01*
X11970109Y-14291891D01*
X12047891Y-14291891D01*
X12047891Y-14741891D02*
X12047891Y-14664109D01*
X11970109Y-14664109D01*
X11970109Y-14741891D01*
X12047891Y-14741891D01*
D11*
X10539619Y-15428476D02*
X10539619Y-15228476D01*
X10587238Y-15228476D01*
X10615810Y-15238000D01*
X10634857Y-15257048D01*
X10644381Y-15276095D01*
X10653905Y-15314190D01*
X10653905Y-15342762D01*
X10644381Y-15380857D01*
X10634857Y-15399905D01*
X10615810Y-15418952D01*
X10587238Y-15428476D01*
X10539619Y-15428476D01*
X10739619Y-15428476D02*
X10739619Y-15295143D01*
X10739619Y-15333238D02*
X10749143Y-15314190D01*
X10758667Y-15304667D01*
X10777714Y-15295143D01*
X10796762Y-15295143D01*
X10863429Y-15428476D02*
X10863429Y-15295143D01*
X10863429Y-15228476D02*
X10853905Y-15238000D01*
X10863429Y-15247524D01*
X10872952Y-15238000D01*
X10863429Y-15228476D01*
X10863429Y-15247524D01*
X10987238Y-15428476D02*
X10968190Y-15418952D01*
X10958667Y-15399905D01*
X10958667Y-15228476D01*
X11092000Y-15428476D02*
X11072952Y-15418952D01*
X11063429Y-15399905D01*
X11063429Y-15228476D01*
X11320571Y-15428476D02*
X11320571Y-15228476D01*
X11387238Y-15371333D01*
X11453905Y-15228476D01*
X11453905Y-15428476D01*
X11634857Y-15428476D02*
X11634857Y-15323714D01*
X11625333Y-15304667D01*
X11606286Y-15295143D01*
X11568190Y-15295143D01*
X11549143Y-15304667D01*
X11634857Y-15418952D02*
X11615809Y-15428476D01*
X11568190Y-15428476D01*
X11549143Y-15418952D01*
X11539619Y-15399905D01*
X11539619Y-15380857D01*
X11549143Y-15361809D01*
X11568190Y-15352286D01*
X11615809Y-15352286D01*
X11634857Y-15342762D01*
X11730095Y-15295143D02*
X11730095Y-15495143D01*
X11730095Y-15304667D02*
X11749143Y-15295143D01*
X11787238Y-15295143D01*
X11806286Y-15304667D01*
X11815809Y-15314190D01*
X11825333Y-15333238D01*
X11825333Y-15390381D01*
X11815809Y-15409428D01*
X11806286Y-15418952D01*
X11787238Y-15428476D01*
X11749143Y-15428476D01*
X11730095Y-15418952D01*
X11911048Y-15409428D02*
X11920571Y-15418952D01*
X11911048Y-15428476D01*
X11901524Y-15418952D01*
X11911048Y-15409428D01*
X11911048Y-15428476D01*
X11911048Y-15304667D02*
X11920571Y-15314190D01*
X11911048Y-15323714D01*
X11901524Y-15314190D01*
X11911048Y-15304667D01*
X11911048Y-15323714D01*
D12*
X10242000Y-15738000D02*
X10282000Y-15778000D01*
X10282000Y-15738000D02*
X10242000Y-15778000D01*
D11*
X10577714Y-15648476D02*
X10596762Y-15648476D01*
X10615810Y-15658000D01*
X10625333Y-15667524D01*
X10634857Y-15686571D01*
X10644381Y-15724667D01*
X10644381Y-15772286D01*
X10634857Y-15810381D01*
X10625333Y-15829428D01*
X10615810Y-15838952D01*
X10596762Y-15848476D01*
X10577714Y-15848476D01*
X10558667Y-15838952D01*
X10549143Y-15829428D01*
X10539619Y-15810381D01*
X10530095Y-15772286D01*
X10530095Y-15724667D01*
X10539619Y-15686571D01*
X10549143Y-15667524D01*
X10558667Y-15658000D01*
X10577714Y-15648476D01*
X10730095Y-15829428D02*
X10739619Y-15838952D01*
X10730095Y-15848476D01*
X10720571Y-15838952D01*
X10730095Y-15829428D01*
X10730095Y-15848476D01*
X10911048Y-15715143D02*
X10911048Y-15848476D01*
X10863429Y-15638952D02*
X10815810Y-15781809D01*
X10939619Y-15781809D01*
X11053905Y-15648476D02*
X11072952Y-15648476D01*
X11092000Y-15658000D01*
X11101524Y-15667524D01*
X11111048Y-15686571D01*
X11120571Y-15724667D01*
X11120571Y-15772286D01*
X11111048Y-15810381D01*
X11101524Y-15829428D01*
X11092000Y-15838952D01*
X11072952Y-15848476D01*
X11053905Y-15848476D01*
X11034857Y-15838952D01*
X11025333Y-15829428D01*
X11015810Y-15810381D01*
X11006286Y-15772286D01*
X11006286Y-15724667D01*
X11015810Y-15686571D01*
X11025333Y-15667524D01*
X11034857Y-15658000D01*
X11053905Y-15648476D01*
X11244381Y-15648476D02*
X11263428Y-15648476D01*
X11282476Y-15658000D01*
X11292000Y-15667524D01*
X11301524Y-15686571D01*
X11311048Y-15724667D01*
X11311048Y-15772286D01*
X11301524Y-15810381D01*
X11292000Y-15829428D01*
X11282476Y-15838952D01*
X11263428Y-15848476D01*
X11244381Y-15848476D01*
X11225333Y-15838952D01*
X11215809Y-15829428D01*
X11206286Y-15810381D01*
X11196762Y-15772286D01*
X11196762Y-15724667D01*
X11206286Y-15686571D01*
X11215809Y-15667524D01*
X11225333Y-15658000D01*
X11244381Y-15648476D01*
X11396762Y-15848476D02*
X11396762Y-15715143D01*
X11396762Y-15734190D02*
X11406286Y-15724667D01*
X11425333Y-15715143D01*
X11453905Y-15715143D01*
X11472952Y-15724667D01*
X11482476Y-15743714D01*
X11482476Y-15848476D01*
X11482476Y-15743714D02*
X11492000Y-15724667D01*
X11511048Y-15715143D01*
X11539619Y-15715143D01*
X11558667Y-15724667D01*
X11568190Y-15743714D01*
X11568190Y-15848476D01*
X11663428Y-15848476D02*
X11663428Y-15715143D01*
X11663428Y-15734190D02*
X11672952Y-15724667D01*
X11692000Y-15715143D01*
X11720571Y-15715143D01*
X11739619Y-15724667D01*
X11749143Y-15743714D01*
X11749143Y-15848476D01*
X11749143Y-15743714D02*
X11758667Y-15724667D01*
X11777714Y-15715143D01*
X11806286Y-15715143D01*
X11825333Y-15724667D01*
X11834857Y-15743714D01*
X11834857Y-15848476D01*
X12225333Y-15638952D02*
X12053905Y-15896095D01*
X12482476Y-15648476D02*
X12501524Y-15648476D01*
X12520571Y-15658000D01*
X12530095Y-15667524D01*
X12539619Y-15686571D01*
X12549143Y-15724667D01*
X12549143Y-15772286D01*
X12539619Y-15810381D01*
X12530095Y-15829428D01*
X12520571Y-15838952D01*
X12501524Y-15848476D01*
X12482476Y-15848476D01*
X12463428Y-15838952D01*
X12453905Y-15829428D01*
X12444381Y-15810381D01*
X12434857Y-15772286D01*
X12434857Y-15724667D01*
X12444381Y-15686571D01*
X12453905Y-15667524D01*
X12463428Y-15658000D01*
X12482476Y-15648476D01*
X12634857Y-15829428D02*
X12644381Y-15838952D01*
X12634857Y-15848476D01*
X12625333Y-15838952D01*
X12634857Y-15829428D01*
X12634857Y-15848476D01*
X12768190Y-15648476D02*
X12787238Y-15648476D01*
X12806286Y-15658000D01*
X12815809Y-15667524D01*
X12825333Y-15686571D01*
X12834857Y-15724667D01*
X12834857Y-15772286D01*
X12825333Y-15810381D01*
X12815809Y-15829428D01*
X12806286Y-15838952D01*
X12787238Y-15848476D01*
X12768190Y-15848476D01*
X12749143Y-15838952D01*
X12739619Y-15829428D01*
X12730095Y-15810381D01*
X12720571Y-15772286D01*
X12720571Y-15724667D01*
X12730095Y-15686571D01*
X12739619Y-15667524D01*
X12749143Y-15658000D01*
X12768190Y-15648476D01*
X13025333Y-15848476D02*
X12911048Y-15848476D01*
X12968190Y-15848476D02*
X12968190Y-15648476D01*
X12949143Y-15677048D01*
X12930095Y-15696095D01*
X12911048Y-15705619D01*
X13206286Y-15648476D02*
X13111048Y-15648476D01*
X13101524Y-15743714D01*
X13111048Y-15734190D01*
X13130095Y-15724667D01*
X13177714Y-15724667D01*
X13196762Y-15734190D01*
X13206286Y-15743714D01*
X13215809Y-15762762D01*
X13215809Y-15810381D01*
X13206286Y-15829428D01*
X13196762Y-15838952D01*
X13177714Y-15848476D01*
X13130095Y-15848476D01*
X13111048Y-15838952D01*
X13101524Y-15829428D01*
X13282476Y-15648476D02*
X13415809Y-15648476D01*
X13330095Y-15848476D01*
X13482476Y-15648476D02*
X13482476Y-15686571D01*
X13558667Y-15648476D02*
X13558667Y-15686571D01*
X13853905Y-15924667D02*
X13844381Y-15915143D01*
X13825333Y-15886571D01*
X13815809Y-15867524D01*
X13806286Y-15838952D01*
X13796762Y-15791333D01*
X13796762Y-15753238D01*
X13806286Y-15705619D01*
X13815809Y-15677048D01*
X13825333Y-15658000D01*
X13844381Y-15629428D01*
X13853905Y-15619905D01*
X14034857Y-15848476D02*
X13920571Y-15848476D01*
X13977714Y-15848476D02*
X13977714Y-15648476D01*
X13958667Y-15677048D01*
X13939619Y-15696095D01*
X13920571Y-15705619D01*
X14158667Y-15648476D02*
X14177714Y-15648476D01*
X14196762Y-15658000D01*
X14206286Y-15667524D01*
X14215809Y-15686571D01*
X14225333Y-15724667D01*
X14225333Y-15772286D01*
X14215809Y-15810381D01*
X14206286Y-15829428D01*
X14196762Y-15838952D01*
X14177714Y-15848476D01*
X14158667Y-15848476D01*
X14139619Y-15838952D01*
X14130095Y-15829428D01*
X14120571Y-15810381D01*
X14111048Y-15772286D01*
X14111048Y-15724667D01*
X14120571Y-15686571D01*
X14130095Y-15667524D01*
X14139619Y-15658000D01*
X14158667Y-15648476D01*
X14463428Y-15848476D02*
X14463428Y-15648476D01*
X14549143Y-15848476D02*
X14549143Y-15743714D01*
X14539619Y-15724667D01*
X14520571Y-15715143D01*
X14492000Y-15715143D01*
X14472952Y-15724667D01*
X14463428Y-15734190D01*
X14672952Y-15848476D02*
X14653905Y-15838952D01*
X14644381Y-15829428D01*
X14634857Y-15810381D01*
X14634857Y-15753238D01*
X14644381Y-15734190D01*
X14653905Y-15724667D01*
X14672952Y-15715143D01*
X14701524Y-15715143D01*
X14720571Y-15724667D01*
X14730095Y-15734190D01*
X14739619Y-15753238D01*
X14739619Y-15810381D01*
X14730095Y-15829428D01*
X14720571Y-15838952D01*
X14701524Y-15848476D01*
X14672952Y-15848476D01*
X14853905Y-15848476D02*
X14834857Y-15838952D01*
X14825333Y-15819905D01*
X14825333Y-15648476D01*
X15006286Y-15838952D02*
X14987238Y-15848476D01*
X14949143Y-15848476D01*
X14930095Y-15838952D01*
X14920571Y-15819905D01*
X14920571Y-15743714D01*
X14930095Y-15724667D01*
X14949143Y-15715143D01*
X14987238Y-15715143D01*
X15006286Y-15724667D01*
X15015809Y-15743714D01*
X15015809Y-15762762D01*
X14920571Y-15781809D01*
X15092000Y-15838952D02*
X15111048Y-15848476D01*
X15149143Y-15848476D01*
X15168190Y-15838952D01*
X15177714Y-15819905D01*
X15177714Y-15810381D01*
X15168190Y-15791333D01*
X15149143Y-15781809D01*
X15120571Y-15781809D01*
X15101524Y-15772286D01*
X15092000Y-15753238D01*
X15092000Y-15743714D01*
X15101524Y-15724667D01*
X15120571Y-15715143D01*
X15149143Y-15715143D01*
X15168190Y-15724667D01*
X15244381Y-15924667D02*
X15253905Y-15915143D01*
X15272952Y-15886571D01*
X15282476Y-15867524D01*
X15292000Y-15838952D01*
X15301524Y-15791333D01*
X15301524Y-15753238D01*
X15292000Y-15705619D01*
X15282476Y-15677048D01*
X15272952Y-15658000D01*
X15253905Y-15629428D01*
X15244381Y-15619905D01*
D13*
X10282000Y-16022000D02*
G75*
G03*
X10282000Y-16022000I-45000J0D01*
G01*
D11*
X10577714Y-15912476D02*
X10596762Y-15912476D01*
X10615810Y-15922000D01*
X10625333Y-15931524D01*
X10634857Y-15950571D01*
X10644381Y-15988667D01*
X10644381Y-16036286D01*
X10634857Y-16074381D01*
X10625333Y-16093428D01*
X10615810Y-16102952D01*
X10596762Y-16112476D01*
X10577714Y-16112476D01*
X10558667Y-16102952D01*
X10549143Y-16093428D01*
X10539619Y-16074381D01*
X10530095Y-16036286D01*
X10530095Y-15988667D01*
X10539619Y-15950571D01*
X10549143Y-15931524D01*
X10558667Y-15922000D01*
X10577714Y-15912476D01*
X10730095Y-16093428D02*
X10739619Y-16102952D01*
X10730095Y-16112476D01*
X10720571Y-16102952D01*
X10730095Y-16093428D01*
X10730095Y-16112476D01*
X10834857Y-16112476D02*
X10872952Y-16112476D01*
X10892000Y-16102952D01*
X10901524Y-16093428D01*
X10920571Y-16064857D01*
X10930095Y-16026762D01*
X10930095Y-15950571D01*
X10920571Y-15931524D01*
X10911048Y-15922000D01*
X10892000Y-15912476D01*
X10853905Y-15912476D01*
X10834857Y-15922000D01*
X10825333Y-15931524D01*
X10815810Y-15950571D01*
X10815810Y-15998190D01*
X10825333Y-16017238D01*
X10834857Y-16026762D01*
X10853905Y-16036286D01*
X10892000Y-16036286D01*
X10911048Y-16026762D01*
X10920571Y-16017238D01*
X10930095Y-15998190D01*
X11053905Y-15912476D02*
X11072952Y-15912476D01*
X11092000Y-15922000D01*
X11101524Y-15931524D01*
X11111048Y-15950571D01*
X11120571Y-15988667D01*
X11120571Y-16036286D01*
X11111048Y-16074381D01*
X11101524Y-16093428D01*
X11092000Y-16102952D01*
X11072952Y-16112476D01*
X11053905Y-16112476D01*
X11034857Y-16102952D01*
X11025333Y-16093428D01*
X11015810Y-16074381D01*
X11006286Y-16036286D01*
X11006286Y-15988667D01*
X11015810Y-15950571D01*
X11025333Y-15931524D01*
X11034857Y-15922000D01*
X11053905Y-15912476D01*
X11244381Y-15912476D02*
X11263428Y-15912476D01*
X11282476Y-15922000D01*
X11292000Y-15931524D01*
X11301524Y-15950571D01*
X11311048Y-15988667D01*
X11311048Y-16036286D01*
X11301524Y-16074381D01*
X11292000Y-16093428D01*
X11282476Y-16102952D01*
X11263428Y-16112476D01*
X11244381Y-16112476D01*
X11225333Y-16102952D01*
X11215809Y-16093428D01*
X11206286Y-16074381D01*
X11196762Y-16036286D01*
X11196762Y-15988667D01*
X11206286Y-15950571D01*
X11215809Y-15931524D01*
X11225333Y-15922000D01*
X11244381Y-15912476D01*
X11396762Y-16112476D02*
X11396762Y-15979143D01*
X11396762Y-15998190D02*
X11406286Y-15988667D01*
X11425333Y-15979143D01*
X11453905Y-15979143D01*
X11472952Y-15988667D01*
X11482476Y-16007714D01*
X11482476Y-16112476D01*
X11482476Y-16007714D02*
X11492000Y-15988667D01*
X11511048Y-15979143D01*
X11539619Y-15979143D01*
X11558667Y-15988667D01*
X11568190Y-16007714D01*
X11568190Y-16112476D01*
X11663428Y-16112476D02*
X11663428Y-15979143D01*
X11663428Y-15998190D02*
X11672952Y-15988667D01*
X11692000Y-15979143D01*
X11720571Y-15979143D01*
X11739619Y-15988667D01*
X11749143Y-16007714D01*
X11749143Y-16112476D01*
X11749143Y-16007714D02*
X11758667Y-15988667D01*
X11777714Y-15979143D01*
X11806286Y-15979143D01*
X11825333Y-15988667D01*
X11834857Y-16007714D01*
X11834857Y-16112476D01*
X12225333Y-15902952D02*
X12053905Y-16160095D01*
X12482476Y-15912476D02*
X12501524Y-15912476D01*
X12520571Y-15922000D01*
X12530095Y-15931524D01*
X12539619Y-15950571D01*
X12549143Y-15988667D01*
X12549143Y-16036286D01*
X12539619Y-16074381D01*
X12530095Y-16093428D01*
X12520571Y-16102952D01*
X12501524Y-16112476D01*
X12482476Y-16112476D01*
X12463428Y-16102952D01*
X12453905Y-16093428D01*
X12444381Y-16074381D01*
X12434857Y-16036286D01*
X12434857Y-15988667D01*
X12444381Y-15950571D01*
X12453905Y-15931524D01*
X12463428Y-15922000D01*
X12482476Y-15912476D01*
X12634857Y-16093428D02*
X12644381Y-16102952D01*
X12634857Y-16112476D01*
X12625333Y-16102952D01*
X12634857Y-16093428D01*
X12634857Y-16112476D01*
X12768190Y-15912476D02*
X12787238Y-15912476D01*
X12806286Y-15922000D01*
X12815809Y-15931524D01*
X12825333Y-15950571D01*
X12834857Y-15988667D01*
X12834857Y-16036286D01*
X12825333Y-16074381D01*
X12815809Y-16093428D01*
X12806286Y-16102952D01*
X12787238Y-16112476D01*
X12768190Y-16112476D01*
X12749143Y-16102952D01*
X12739619Y-16093428D01*
X12730095Y-16074381D01*
X12720571Y-16036286D01*
X12720571Y-15988667D01*
X12730095Y-15950571D01*
X12739619Y-15931524D01*
X12749143Y-15922000D01*
X12768190Y-15912476D01*
X12901524Y-15912476D02*
X13025333Y-15912476D01*
X12958667Y-15988667D01*
X12987238Y-15988667D01*
X13006286Y-15998190D01*
X13015809Y-16007714D01*
X13025333Y-16026762D01*
X13025333Y-16074381D01*
X13015809Y-16093428D01*
X13006286Y-16102952D01*
X12987238Y-16112476D01*
X12930095Y-16112476D01*
X12911048Y-16102952D01*
X12901524Y-16093428D01*
X13206286Y-15912476D02*
X13111048Y-15912476D01*
X13101524Y-16007714D01*
X13111048Y-15998190D01*
X13130095Y-15988667D01*
X13177714Y-15988667D01*
X13196762Y-15998190D01*
X13206286Y-16007714D01*
X13215809Y-16026762D01*
X13215809Y-16074381D01*
X13206286Y-16093428D01*
X13196762Y-16102952D01*
X13177714Y-16112476D01*
X13130095Y-16112476D01*
X13111048Y-16102952D01*
X13101524Y-16093428D01*
X13387238Y-15979143D02*
X13387238Y-16112476D01*
X13339619Y-15902952D02*
X13292000Y-16045809D01*
X13415809Y-16045809D01*
X13482476Y-15912476D02*
X13482476Y-15950571D01*
X13558667Y-15912476D02*
X13558667Y-15950571D01*
X13853905Y-16188667D02*
X13844381Y-16179143D01*
X13825333Y-16150571D01*
X13815809Y-16131524D01*
X13806286Y-16102952D01*
X13796762Y-16055333D01*
X13796762Y-16017238D01*
X13806286Y-15969619D01*
X13815809Y-15941048D01*
X13825333Y-15922000D01*
X13844381Y-15893428D01*
X13853905Y-15883905D01*
X13939619Y-16112476D02*
X13977714Y-16112476D01*
X13996762Y-16102952D01*
X14006286Y-16093428D01*
X14025333Y-16064857D01*
X14034857Y-16026762D01*
X14034857Y-15950571D01*
X14025333Y-15931524D01*
X14015809Y-15922000D01*
X13996762Y-15912476D01*
X13958667Y-15912476D01*
X13939619Y-15922000D01*
X13930095Y-15931524D01*
X13920571Y-15950571D01*
X13920571Y-15998190D01*
X13930095Y-16017238D01*
X13939619Y-16026762D01*
X13958667Y-16036286D01*
X13996762Y-16036286D01*
X14015809Y-16026762D01*
X14025333Y-16017238D01*
X14034857Y-15998190D01*
X14272952Y-16112476D02*
X14272952Y-15912476D01*
X14358667Y-16112476D02*
X14358667Y-16007714D01*
X14349143Y-15988667D01*
X14330095Y-15979143D01*
X14301524Y-15979143D01*
X14282476Y-15988667D01*
X14272952Y-15998190D01*
X14482476Y-16112476D02*
X14463428Y-16102952D01*
X14453905Y-16093428D01*
X14444381Y-16074381D01*
X14444381Y-16017238D01*
X14453905Y-15998190D01*
X14463428Y-15988667D01*
X14482476Y-15979143D01*
X14511048Y-15979143D01*
X14530095Y-15988667D01*
X14539619Y-15998190D01*
X14549143Y-16017238D01*
X14549143Y-16074381D01*
X14539619Y-16093428D01*
X14530095Y-16102952D01*
X14511048Y-16112476D01*
X14482476Y-16112476D01*
X14663428Y-16112476D02*
X14644381Y-16102952D01*
X14634857Y-16083905D01*
X14634857Y-15912476D01*
X14815809Y-16102952D02*
X14796762Y-16112476D01*
X14758667Y-16112476D01*
X14739619Y-16102952D01*
X14730095Y-16083905D01*
X14730095Y-16007714D01*
X14739619Y-15988667D01*
X14758667Y-15979143D01*
X14796762Y-15979143D01*
X14815809Y-15988667D01*
X14825333Y-16007714D01*
X14825333Y-16026762D01*
X14730095Y-16045809D01*
X14901524Y-16102952D02*
X14920571Y-16112476D01*
X14958667Y-16112476D01*
X14977714Y-16102952D01*
X14987238Y-16083905D01*
X14987238Y-16074381D01*
X14977714Y-16055333D01*
X14958667Y-16045809D01*
X14930095Y-16045809D01*
X14911048Y-16036286D01*
X14901524Y-16017238D01*
X14901524Y-16007714D01*
X14911048Y-15988667D01*
X14930095Y-15979143D01*
X14958667Y-15979143D01*
X14977714Y-15988667D01*
X15053905Y-16188667D02*
X15063428Y-16179143D01*
X15082476Y-16150571D01*
X15092000Y-16131524D01*
X15101524Y-16102952D01*
X15111048Y-16055333D01*
X15111048Y-16017238D01*
X15101524Y-15969619D01*
X15092000Y-15941048D01*
X15082476Y-15922000D01*
X15063428Y-15893428D01*
X15053905Y-15883905D01*
D14*
X10232000Y-16236000D02*
X10232000Y-16336000D01*
X10182000Y-16286000D02*
X10282000Y-16286000D01*
D11*
X10644381Y-16376476D02*
X10530095Y-16376476D01*
X10587238Y-16376476D02*
X10587238Y-16176476D01*
X10568190Y-16205048D01*
X10549143Y-16224095D01*
X10530095Y-16233619D01*
X10730095Y-16357428D02*
X10739619Y-16366952D01*
X10730095Y-16376476D01*
X10720571Y-16366952D01*
X10730095Y-16357428D01*
X10730095Y-16376476D01*
X10863429Y-16176476D02*
X10882476Y-16176476D01*
X10901524Y-16186000D01*
X10911048Y-16195524D01*
X10920571Y-16214571D01*
X10930095Y-16252667D01*
X10930095Y-16300286D01*
X10920571Y-16338381D01*
X10911048Y-16357428D01*
X10901524Y-16366952D01*
X10882476Y-16376476D01*
X10863429Y-16376476D01*
X10844381Y-16366952D01*
X10834857Y-16357428D01*
X10825333Y-16338381D01*
X10815810Y-16300286D01*
X10815810Y-16252667D01*
X10825333Y-16214571D01*
X10834857Y-16195524D01*
X10844381Y-16186000D01*
X10863429Y-16176476D01*
X11053905Y-16176476D02*
X11072952Y-16176476D01*
X11092000Y-16186000D01*
X11101524Y-16195524D01*
X11111048Y-16214571D01*
X11120571Y-16252667D01*
X11120571Y-16300286D01*
X11111048Y-16338381D01*
X11101524Y-16357428D01*
X11092000Y-16366952D01*
X11072952Y-16376476D01*
X11053905Y-16376476D01*
X11034857Y-16366952D01*
X11025333Y-16357428D01*
X11015810Y-16338381D01*
X11006286Y-16300286D01*
X11006286Y-16252667D01*
X11015810Y-16214571D01*
X11025333Y-16195524D01*
X11034857Y-16186000D01*
X11053905Y-16176476D01*
X11244381Y-16176476D02*
X11263428Y-16176476D01*
X11282476Y-16186000D01*
X11292000Y-16195524D01*
X11301524Y-16214571D01*
X11311048Y-16252667D01*
X11311048Y-16300286D01*
X11301524Y-16338381D01*
X11292000Y-16357428D01*
X11282476Y-16366952D01*
X11263428Y-16376476D01*
X11244381Y-16376476D01*
X11225333Y-16366952D01*
X11215809Y-16357428D01*
X11206286Y-16338381D01*
X11196762Y-16300286D01*
X11196762Y-16252667D01*
X11206286Y-16214571D01*
X11215809Y-16195524D01*
X11225333Y-16186000D01*
X11244381Y-16176476D01*
X11396762Y-16376476D02*
X11396762Y-16243143D01*
X11396762Y-16262190D02*
X11406286Y-16252667D01*
X11425333Y-16243143D01*
X11453905Y-16243143D01*
X11472952Y-16252667D01*
X11482476Y-16271714D01*
X11482476Y-16376476D01*
X11482476Y-16271714D02*
X11492000Y-16252667D01*
X11511048Y-16243143D01*
X11539619Y-16243143D01*
X11558667Y-16252667D01*
X11568190Y-16271714D01*
X11568190Y-16376476D01*
X11663428Y-16376476D02*
X11663428Y-16243143D01*
X11663428Y-16262190D02*
X11672952Y-16252667D01*
X11692000Y-16243143D01*
X11720571Y-16243143D01*
X11739619Y-16252667D01*
X11749143Y-16271714D01*
X11749143Y-16376476D01*
X11749143Y-16271714D02*
X11758667Y-16252667D01*
X11777714Y-16243143D01*
X11806286Y-16243143D01*
X11825333Y-16252667D01*
X11834857Y-16271714D01*
X11834857Y-16376476D01*
X12225333Y-16166952D02*
X12053905Y-16424095D01*
X12482476Y-16176476D02*
X12501524Y-16176476D01*
X12520571Y-16186000D01*
X12530095Y-16195524D01*
X12539619Y-16214571D01*
X12549143Y-16252667D01*
X12549143Y-16300286D01*
X12539619Y-16338381D01*
X12530095Y-16357428D01*
X12520571Y-16366952D01*
X12501524Y-16376476D01*
X12482476Y-16376476D01*
X12463428Y-16366952D01*
X12453905Y-16357428D01*
X12444381Y-16338381D01*
X12434857Y-16300286D01*
X12434857Y-16252667D01*
X12444381Y-16214571D01*
X12453905Y-16195524D01*
X12463428Y-16186000D01*
X12482476Y-16176476D01*
X12634857Y-16357428D02*
X12644381Y-16366952D01*
X12634857Y-16376476D01*
X12625333Y-16366952D01*
X12634857Y-16357428D01*
X12634857Y-16376476D01*
X12768190Y-16176476D02*
X12787238Y-16176476D01*
X12806286Y-16186000D01*
X12815809Y-16195524D01*
X12825333Y-16214571D01*
X12834857Y-16252667D01*
X12834857Y-16300286D01*
X12825333Y-16338381D01*
X12815809Y-16357428D01*
X12806286Y-16366952D01*
X12787238Y-16376476D01*
X12768190Y-16376476D01*
X12749143Y-16366952D01*
X12739619Y-16357428D01*
X12730095Y-16338381D01*
X12720571Y-16300286D01*
X12720571Y-16252667D01*
X12730095Y-16214571D01*
X12739619Y-16195524D01*
X12749143Y-16186000D01*
X12768190Y-16176476D01*
X12901524Y-16176476D02*
X13025333Y-16176476D01*
X12958667Y-16252667D01*
X12987238Y-16252667D01*
X13006286Y-16262190D01*
X13015809Y-16271714D01*
X13025333Y-16290762D01*
X13025333Y-16338381D01*
X13015809Y-16357428D01*
X13006286Y-16366952D01*
X12987238Y-16376476D01*
X12930095Y-16376476D01*
X12911048Y-16366952D01*
X12901524Y-16357428D01*
X13120571Y-16376476D02*
X13158667Y-16376476D01*
X13177714Y-16366952D01*
X13187238Y-16357428D01*
X13206286Y-16328857D01*
X13215809Y-16290762D01*
X13215809Y-16214571D01*
X13206286Y-16195524D01*
X13196762Y-16186000D01*
X13177714Y-16176476D01*
X13139619Y-16176476D01*
X13120571Y-16186000D01*
X13111048Y-16195524D01*
X13101524Y-16214571D01*
X13101524Y-16262190D01*
X13111048Y-16281238D01*
X13120571Y-16290762D01*
X13139619Y-16300286D01*
X13177714Y-16300286D01*
X13196762Y-16290762D01*
X13206286Y-16281238D01*
X13215809Y-16262190D01*
X13387238Y-16243143D02*
X13387238Y-16376476D01*
X13339619Y-16166952D02*
X13292000Y-16309809D01*
X13415809Y-16309809D01*
X13482476Y-16176476D02*
X13482476Y-16214571D01*
X13558667Y-16176476D02*
X13558667Y-16214571D01*
X13853905Y-16452667D02*
X13844381Y-16443143D01*
X13825333Y-16414571D01*
X13815809Y-16395524D01*
X13806286Y-16366952D01*
X13796762Y-16319333D01*
X13796762Y-16281238D01*
X13806286Y-16233619D01*
X13815809Y-16205048D01*
X13825333Y-16186000D01*
X13844381Y-16157428D01*
X13853905Y-16147905D01*
X13911048Y-16176476D02*
X14034857Y-16176476D01*
X13968190Y-16252667D01*
X13996762Y-16252667D01*
X14015809Y-16262190D01*
X14025333Y-16271714D01*
X14034857Y-16290762D01*
X14034857Y-16338381D01*
X14025333Y-16357428D01*
X14015809Y-16366952D01*
X13996762Y-16376476D01*
X13939619Y-16376476D01*
X13920571Y-16366952D01*
X13911048Y-16357428D01*
X14111048Y-16195524D02*
X14120571Y-16186000D01*
X14139619Y-16176476D01*
X14187238Y-16176476D01*
X14206286Y-16186000D01*
X14215809Y-16195524D01*
X14225333Y-16214571D01*
X14225333Y-16233619D01*
X14215809Y-16262190D01*
X14101524Y-16376476D01*
X14225333Y-16376476D01*
X14463428Y-16376476D02*
X14463428Y-16176476D01*
X14549143Y-16376476D02*
X14549143Y-16271714D01*
X14539619Y-16252667D01*
X14520571Y-16243143D01*
X14492000Y-16243143D01*
X14472952Y-16252667D01*
X14463428Y-16262190D01*
X14672952Y-16376476D02*
X14653905Y-16366952D01*
X14644381Y-16357428D01*
X14634857Y-16338381D01*
X14634857Y-16281238D01*
X14644381Y-16262190D01*
X14653905Y-16252667D01*
X14672952Y-16243143D01*
X14701524Y-16243143D01*
X14720571Y-16252667D01*
X14730095Y-16262190D01*
X14739619Y-16281238D01*
X14739619Y-16338381D01*
X14730095Y-16357428D01*
X14720571Y-16366952D01*
X14701524Y-16376476D01*
X14672952Y-16376476D01*
X14853905Y-16376476D02*
X14834857Y-16366952D01*
X14825333Y-16347905D01*
X14825333Y-16176476D01*
X15006286Y-16366952D02*
X14987238Y-16376476D01*
X14949143Y-16376476D01*
X14930095Y-16366952D01*
X14920571Y-16347905D01*
X14920571Y-16271714D01*
X14930095Y-16252667D01*
X14949143Y-16243143D01*
X14987238Y-16243143D01*
X15006286Y-16252667D01*
X15015809Y-16271714D01*
X15015809Y-16290762D01*
X14920571Y-16309809D01*
X15092000Y-16366952D02*
X15111048Y-16376476D01*
X15149143Y-16376476D01*
X15168190Y-16366952D01*
X15177714Y-16347905D01*
X15177714Y-16338381D01*
X15168190Y-16319333D01*
X15149143Y-16309809D01*
X15120571Y-16309809D01*
X15101524Y-16300286D01*
X15092000Y-16281238D01*
X15092000Y-16271714D01*
X15101524Y-16252667D01*
X15120571Y-16243143D01*
X15149143Y-16243143D01*
X15168190Y-16252667D01*
X15244381Y-16452667D02*
X15253905Y-16443143D01*
X15272952Y-16414571D01*
X15282476Y-16395524D01*
X15292000Y-16366952D01*
X15301524Y-16319333D01*
X15301524Y-16281238D01*
X15292000Y-16233619D01*
X15282476Y-16205048D01*
X15272952Y-16186000D01*
X15253905Y-16157428D01*
X15244381Y-16147905D01*
D15*
X10265891Y-16588891D02*
X10265891Y-16511109D01*
X10188109Y-16511109D01*
X10188109Y-16588891D01*
X10265891Y-16588891D01*
D11*
X10644381Y-16640476D02*
X10530095Y-16640476D01*
X10587238Y-16640476D02*
X10587238Y-16440476D01*
X10568190Y-16469048D01*
X10549143Y-16488095D01*
X10530095Y-16497619D01*
X10730095Y-16621428D02*
X10739619Y-16630952D01*
X10730095Y-16640476D01*
X10720571Y-16630952D01*
X10730095Y-16621428D01*
X10730095Y-16640476D01*
X10930095Y-16640476D02*
X10815810Y-16640476D01*
X10872952Y-16640476D02*
X10872952Y-16440476D01*
X10853905Y-16469048D01*
X10834857Y-16488095D01*
X10815810Y-16497619D01*
X11053905Y-16440476D02*
X11072952Y-16440476D01*
X11092000Y-16450000D01*
X11101524Y-16459524D01*
X11111048Y-16478571D01*
X11120571Y-16516667D01*
X11120571Y-16564286D01*
X11111048Y-16602381D01*
X11101524Y-16621428D01*
X11092000Y-16630952D01*
X11072952Y-16640476D01*
X11053905Y-16640476D01*
X11034857Y-16630952D01*
X11025333Y-16621428D01*
X11015810Y-16602381D01*
X11006286Y-16564286D01*
X11006286Y-16516667D01*
X11015810Y-16478571D01*
X11025333Y-16459524D01*
X11034857Y-16450000D01*
X11053905Y-16440476D01*
X11244381Y-16440476D02*
X11263428Y-16440476D01*
X11282476Y-16450000D01*
X11292000Y-16459524D01*
X11301524Y-16478571D01*
X11311048Y-16516667D01*
X11311048Y-16564286D01*
X11301524Y-16602381D01*
X11292000Y-16621428D01*
X11282476Y-16630952D01*
X11263428Y-16640476D01*
X11244381Y-16640476D01*
X11225333Y-16630952D01*
X11215809Y-16621428D01*
X11206286Y-16602381D01*
X11196762Y-16564286D01*
X11196762Y-16516667D01*
X11206286Y-16478571D01*
X11215809Y-16459524D01*
X11225333Y-16450000D01*
X11244381Y-16440476D01*
X11396762Y-16640476D02*
X11396762Y-16507143D01*
X11396762Y-16526190D02*
X11406286Y-16516667D01*
X11425333Y-16507143D01*
X11453905Y-16507143D01*
X11472952Y-16516667D01*
X11482476Y-16535714D01*
X11482476Y-16640476D01*
X11482476Y-16535714D02*
X11492000Y-16516667D01*
X11511048Y-16507143D01*
X11539619Y-16507143D01*
X11558667Y-16516667D01*
X11568190Y-16535714D01*
X11568190Y-16640476D01*
X11663428Y-16640476D02*
X11663428Y-16507143D01*
X11663428Y-16526190D02*
X11672952Y-16516667D01*
X11692000Y-16507143D01*
X11720571Y-16507143D01*
X11739619Y-16516667D01*
X11749143Y-16535714D01*
X11749143Y-16640476D01*
X11749143Y-16535714D02*
X11758667Y-16516667D01*
X11777714Y-16507143D01*
X11806286Y-16507143D01*
X11825333Y-16516667D01*
X11834857Y-16535714D01*
X11834857Y-16640476D01*
X12225333Y-16430952D02*
X12053905Y-16688095D01*
X12482476Y-16440476D02*
X12501524Y-16440476D01*
X12520571Y-16450000D01*
X12530095Y-16459524D01*
X12539619Y-16478571D01*
X12549143Y-16516667D01*
X12549143Y-16564286D01*
X12539619Y-16602381D01*
X12530095Y-16621428D01*
X12520571Y-16630952D01*
X12501524Y-16640476D01*
X12482476Y-16640476D01*
X12463428Y-16630952D01*
X12453905Y-16621428D01*
X12444381Y-16602381D01*
X12434857Y-16564286D01*
X12434857Y-16516667D01*
X12444381Y-16478571D01*
X12453905Y-16459524D01*
X12463428Y-16450000D01*
X12482476Y-16440476D01*
X12634857Y-16621428D02*
X12644381Y-16630952D01*
X12634857Y-16640476D01*
X12625333Y-16630952D01*
X12634857Y-16621428D01*
X12634857Y-16640476D01*
X12768190Y-16440476D02*
X12787238Y-16440476D01*
X12806286Y-16450000D01*
X12815809Y-16459524D01*
X12825333Y-16478571D01*
X12834857Y-16516667D01*
X12834857Y-16564286D01*
X12825333Y-16602381D01*
X12815809Y-16621428D01*
X12806286Y-16630952D01*
X12787238Y-16640476D01*
X12768190Y-16640476D01*
X12749143Y-16630952D01*
X12739619Y-16621428D01*
X12730095Y-16602381D01*
X12720571Y-16564286D01*
X12720571Y-16516667D01*
X12730095Y-16478571D01*
X12739619Y-16459524D01*
X12749143Y-16450000D01*
X12768190Y-16440476D01*
X13006286Y-16507143D02*
X13006286Y-16640476D01*
X12958667Y-16430952D02*
X12911048Y-16573809D01*
X13034857Y-16573809D01*
X13092000Y-16440476D02*
X13215809Y-16440476D01*
X13149143Y-16516667D01*
X13177714Y-16516667D01*
X13196762Y-16526190D01*
X13206286Y-16535714D01*
X13215809Y-16554762D01*
X13215809Y-16602381D01*
X13206286Y-16621428D01*
X13196762Y-16630952D01*
X13177714Y-16640476D01*
X13120571Y-16640476D01*
X13101524Y-16630952D01*
X13092000Y-16621428D01*
X13282476Y-16440476D02*
X13406286Y-16440476D01*
X13339619Y-16516667D01*
X13368190Y-16516667D01*
X13387238Y-16526190D01*
X13396762Y-16535714D01*
X13406286Y-16554762D01*
X13406286Y-16602381D01*
X13396762Y-16621428D01*
X13387238Y-16630952D01*
X13368190Y-16640476D01*
X13311048Y-16640476D01*
X13292000Y-16630952D01*
X13282476Y-16621428D01*
X13482476Y-16440476D02*
X13482476Y-16478571D01*
X13558667Y-16440476D02*
X13558667Y-16478571D01*
X13853905Y-16716667D02*
X13844381Y-16707143D01*
X13825333Y-16678571D01*
X13815809Y-16659524D01*
X13806286Y-16630952D01*
X13796762Y-16583333D01*
X13796762Y-16545238D01*
X13806286Y-16497619D01*
X13815809Y-16469048D01*
X13825333Y-16450000D01*
X13844381Y-16421428D01*
X13853905Y-16411905D01*
X14015809Y-16507143D02*
X14015809Y-16640476D01*
X13968190Y-16430952D02*
X13920571Y-16573809D01*
X14044381Y-16573809D01*
X14272952Y-16640476D02*
X14272952Y-16440476D01*
X14358667Y-16640476D02*
X14358667Y-16535714D01*
X14349143Y-16516667D01*
X14330095Y-16507143D01*
X14301524Y-16507143D01*
X14282476Y-16516667D01*
X14272952Y-16526190D01*
X14482476Y-16640476D02*
X14463428Y-16630952D01*
X14453905Y-16621428D01*
X14444381Y-16602381D01*
X14444381Y-16545238D01*
X14453905Y-16526190D01*
X14463428Y-16516667D01*
X14482476Y-16507143D01*
X14511048Y-16507143D01*
X14530095Y-16516667D01*
X14539619Y-16526190D01*
X14549143Y-16545238D01*
X14549143Y-16602381D01*
X14539619Y-16621428D01*
X14530095Y-16630952D01*
X14511048Y-16640476D01*
X14482476Y-16640476D01*
X14663428Y-16640476D02*
X14644381Y-16630952D01*
X14634857Y-16611905D01*
X14634857Y-16440476D01*
X14815809Y-16630952D02*
X14796762Y-16640476D01*
X14758667Y-16640476D01*
X14739619Y-16630952D01*
X14730095Y-16611905D01*
X14730095Y-16535714D01*
X14739619Y-16516667D01*
X14758667Y-16507143D01*
X14796762Y-16507143D01*
X14815809Y-16516667D01*
X14825333Y-16535714D01*
X14825333Y-16554762D01*
X14730095Y-16573809D01*
X14901524Y-16630952D02*
X14920571Y-16640476D01*
X14958667Y-16640476D01*
X14977714Y-16630952D01*
X14987238Y-16611905D01*
X14987238Y-16602381D01*
X14977714Y-16583333D01*
X14958667Y-16573809D01*
X14930095Y-16573809D01*
X14911048Y-16564286D01*
X14901524Y-16545238D01*
X14901524Y-16535714D01*
X14911048Y-16516667D01*
X14930095Y-16507143D01*
X14958667Y-16507143D01*
X14977714Y-16516667D01*
X15053905Y-16716667D02*
X15063428Y-16707143D01*
X15082476Y-16678571D01*
X15092000Y-16659524D01*
X15101524Y-16630952D01*
X15111048Y-16583333D01*
X15111048Y-16545238D01*
X15101524Y-16497619D01*
X15092000Y-16469048D01*
X15082476Y-16450000D01*
X15063428Y-16421428D01*
X15053905Y-16411905D01*
M02*
