G04 #@! TF.GenerationSoftware,KiCad,Pcbnew,6.0.1-79c1e3a40b~116~ubuntu20.04.1*
G04 #@! TF.CreationDate,2022-02-01T23:26:21-08:00*
G04 #@! TF.ProjectId,Laser_Tag,4c617365-725f-4546-9167-2e6b69636164,2-1-22*
G04 #@! TF.SameCoordinates,Original*
G04 #@! TF.FileFunction,Legend,Top*
G04 #@! TF.FilePolarity,Positive*
%FSLAX46Y46*%
G04 Gerber Fmt 4.6, Leading zero omitted, Abs format (unit mm)*
G04 Created by KiCad (PCBNEW 6.0.1-79c1e3a40b~116~ubuntu20.04.1) date 2022-02-01 23:26:21*
%MOMM*%
%LPD*%
G01*
G04 APERTURE LIST*
G04 Aperture macros list*
%AMRoundRect*
0 Rectangle with rounded corners*
0 $1 Rounding radius*
0 $2 $3 $4 $5 $6 $7 $8 $9 X,Y pos of 4 corners*
0 Add a 4 corners polygon primitive as box body*
4,1,4,$2,$3,$4,$5,$6,$7,$8,$9,$2,$3,0*
0 Add four circle primitives for the rounded corners*
1,1,$1+$1,$2,$3*
1,1,$1+$1,$4,$5*
1,1,$1+$1,$6,$7*
1,1,$1+$1,$8,$9*
0 Add four rect primitives between the rounded corners*
20,1,$1+$1,$2,$3,$4,$5,0*
20,1,$1+$1,$4,$5,$6,$7,0*
20,1,$1+$1,$6,$7,$8,$9,0*
20,1,$1+$1,$8,$9,$2,$3,0*%
G04 Aperture macros list end*
%ADD10C,0.150000*%
%ADD11C,0.153000*%
%ADD12C,0.180000*%
%ADD13C,0.120000*%
%ADD14RoundRect,0.301000X-0.250000X-0.475000X0.250000X-0.475000X0.250000X0.475000X-0.250000X0.475000X0*%
%ADD15C,2.102000*%
%ADD16RoundRect,0.301000X-0.262500X-0.450000X0.262500X-0.450000X0.262500X0.450000X-0.262500X0.450000X0*%
%ADD17RoundRect,0.301000X0.262500X0.450000X-0.262500X0.450000X-0.262500X-0.450000X0.262500X-0.450000X0*%
%ADD18RoundRect,0.201000X0.587500X0.150000X-0.587500X0.150000X-0.587500X-0.150000X0.587500X-0.150000X0*%
%ADD19RoundRect,0.051000X-0.800000X-0.800000X0.800000X-0.800000X0.800000X0.800000X-0.800000X0.800000X0*%
%ADD20O,1.702000X1.702000*%
%ADD21RoundRect,0.051000X-1.000000X-1.000000X1.000000X-1.000000X1.000000X1.000000X-1.000000X1.000000X0*%
%ADD22RoundRect,0.301200X0.649800X0.649800X-0.649800X0.649800X-0.649800X-0.649800X0.649800X-0.649800X0*%
%ADD23C,1.902000*%
%ADD24RoundRect,0.051000X0.900000X0.900000X-0.900000X0.900000X-0.900000X-0.900000X0.900000X-0.900000X0*%
%ADD25RoundRect,0.051000X-0.900000X-0.900000X0.900000X-0.900000X0.900000X0.900000X-0.900000X0.900000X0*%
G04 APERTURE END LIST*
D10*
X119380000Y-116840000D02*
X118110000Y-115570000D01*
X119380000Y-114300000D02*
X119380000Y-116840000D01*
X119380000Y-116840000D02*
X120650000Y-115570000D01*
D11*
X107497619Y-114637545D02*
X108497619Y-114637545D01*
X107497619Y-115542307D02*
X108021428Y-115542307D01*
X108116666Y-115494688D01*
X108164285Y-115399450D01*
X108164285Y-115208973D01*
X108116666Y-115113735D01*
X107545238Y-115542307D02*
X107497619Y-115447069D01*
X107497619Y-115208973D01*
X107545238Y-115113735D01*
X107640476Y-115066116D01*
X107735714Y-115066116D01*
X107830952Y-115113735D01*
X107878571Y-115208973D01*
X107878571Y-115447069D01*
X107926190Y-115542307D01*
X108164285Y-116018497D02*
X107497619Y-116018497D01*
X108069047Y-116018497D02*
X108116666Y-116066116D01*
X108164285Y-116161354D01*
X108164285Y-116304211D01*
X108116666Y-116399450D01*
X108021428Y-116447069D01*
X107497619Y-116447069D01*
X107545238Y-117637545D02*
X107497619Y-117780402D01*
X107497619Y-118018497D01*
X107545238Y-118113735D01*
X107592857Y-118161354D01*
X107688095Y-118208973D01*
X107783333Y-118208973D01*
X107878571Y-118161354D01*
X107926190Y-118113735D01*
X107973809Y-118018497D01*
X108021428Y-117828021D01*
X108069047Y-117732783D01*
X108116666Y-117685164D01*
X108211904Y-117637545D01*
X108307142Y-117637545D01*
X108402380Y-117685164D01*
X108450000Y-117732783D01*
X108497619Y-117828021D01*
X108497619Y-118066116D01*
X108450000Y-118208973D01*
X107545238Y-119066116D02*
X107497619Y-118970878D01*
X107497619Y-118780402D01*
X107545238Y-118685164D01*
X107592857Y-118637545D01*
X107688095Y-118589926D01*
X107973809Y-118589926D01*
X108069047Y-118637545D01*
X108116666Y-118685164D01*
X108164285Y-118780402D01*
X108164285Y-118970878D01*
X108116666Y-119066116D01*
X107497619Y-119494688D02*
X108497619Y-119494688D01*
X107497619Y-119923259D02*
X108021428Y-119923259D01*
X108116666Y-119875640D01*
X108164285Y-119780402D01*
X108164285Y-119637545D01*
X108116666Y-119542307D01*
X108069047Y-119494688D01*
X107497619Y-120399450D02*
X108164285Y-120399450D01*
X107973809Y-120399450D02*
X108069047Y-120447069D01*
X108116666Y-120494688D01*
X108164285Y-120589926D01*
X108164285Y-120685164D01*
X107497619Y-121161354D02*
X107545238Y-121066116D01*
X107592857Y-121018497D01*
X107688095Y-120970878D01*
X107973809Y-120970878D01*
X108069047Y-121018497D01*
X108116666Y-121066116D01*
X108164285Y-121161354D01*
X108164285Y-121304211D01*
X108116666Y-121399450D01*
X108069047Y-121447069D01*
X107973809Y-121494688D01*
X107688095Y-121494688D01*
X107592857Y-121447069D01*
X107545238Y-121399450D01*
X107497619Y-121304211D01*
X107497619Y-121161354D01*
X107545238Y-122304211D02*
X107497619Y-122208973D01*
X107497619Y-122018497D01*
X107545238Y-121923259D01*
X107640476Y-121875640D01*
X108021428Y-121875640D01*
X108116666Y-121923259D01*
X108164285Y-122018497D01*
X108164285Y-122208973D01*
X108116666Y-122304211D01*
X108021428Y-122351830D01*
X107926190Y-122351830D01*
X107830952Y-121875640D01*
X108164285Y-122637545D02*
X108164285Y-123018497D01*
X108497619Y-122780402D02*
X107640476Y-122780402D01*
X107545238Y-122828021D01*
X107497619Y-122923259D01*
X107497619Y-123018497D01*
X107497619Y-123494688D02*
X107545238Y-123399450D01*
X107640476Y-123351830D01*
X108497619Y-123351830D01*
X107497619Y-123875640D02*
X108164285Y-123875640D01*
X108497619Y-123875640D02*
X108450000Y-123828021D01*
X108402380Y-123875640D01*
X108450000Y-123923259D01*
X108497619Y-123875640D01*
X108402380Y-123875640D01*
X108164285Y-124351830D02*
X107497619Y-124351830D01*
X108069047Y-124351830D02*
X108116666Y-124399450D01*
X108164285Y-124494688D01*
X108164285Y-124637545D01*
X108116666Y-124732783D01*
X108021428Y-124780402D01*
X107497619Y-124780402D01*
X107132380Y-115157619D02*
X107180000Y-115205238D01*
X107227619Y-115300476D01*
X107227619Y-115538571D01*
X107180000Y-115633809D01*
X107132380Y-115681428D01*
X107037142Y-115729047D01*
X106941904Y-115729047D01*
X106799047Y-115681428D01*
X106227619Y-115110000D01*
X106227619Y-115729047D01*
X106608571Y-116157619D02*
X106608571Y-116919523D01*
X106227619Y-117919523D02*
X106227619Y-117348095D01*
X106227619Y-117633809D02*
X107227619Y-117633809D01*
X107084761Y-117538571D01*
X106989523Y-117443333D01*
X106941904Y-117348095D01*
X106608571Y-118348095D02*
X106608571Y-119110000D01*
X107132380Y-119538571D02*
X107180000Y-119586190D01*
X107227619Y-119681428D01*
X107227619Y-119919523D01*
X107180000Y-120014761D01*
X107132380Y-120062380D01*
X107037142Y-120110000D01*
X106941904Y-120110000D01*
X106799047Y-120062380D01*
X106227619Y-119490952D01*
X106227619Y-120110000D01*
X107132380Y-120490952D02*
X107180000Y-120538571D01*
X107227619Y-120633809D01*
X107227619Y-120871904D01*
X107180000Y-120967142D01*
X107132380Y-121014761D01*
X107037142Y-121062380D01*
X106941904Y-121062380D01*
X106799047Y-121014761D01*
X106227619Y-120443333D01*
X106227619Y-121062380D01*
X134167619Y-99397545D02*
X135167619Y-99397545D01*
X135167619Y-99778497D01*
X135120000Y-99873735D01*
X135072380Y-99921354D01*
X134977142Y-99968973D01*
X134834285Y-99968973D01*
X134739047Y-99921354D01*
X134691428Y-99873735D01*
X134643809Y-99778497D01*
X134643809Y-99397545D01*
X134167619Y-100397545D02*
X134834285Y-100397545D01*
X134643809Y-100397545D02*
X134739047Y-100445164D01*
X134786666Y-100492783D01*
X134834285Y-100588021D01*
X134834285Y-100683259D01*
X134167619Y-101159450D02*
X134215238Y-101064211D01*
X134262857Y-101016592D01*
X134358095Y-100968973D01*
X134643809Y-100968973D01*
X134739047Y-101016592D01*
X134786666Y-101064211D01*
X134834285Y-101159450D01*
X134834285Y-101302307D01*
X134786666Y-101397545D01*
X134739047Y-101445164D01*
X134643809Y-101492783D01*
X134358095Y-101492783D01*
X134262857Y-101445164D01*
X134215238Y-101397545D01*
X134167619Y-101302307D01*
X134167619Y-101159450D01*
X134834285Y-101921354D02*
X133834285Y-101921354D01*
X134786666Y-101921354D02*
X134834285Y-102016592D01*
X134834285Y-102207069D01*
X134786666Y-102302307D01*
X134739047Y-102349926D01*
X134643809Y-102397545D01*
X134358095Y-102397545D01*
X134262857Y-102349926D01*
X134215238Y-102302307D01*
X134167619Y-102207069D01*
X134167619Y-102016592D01*
X134215238Y-101921354D01*
X134215238Y-103207069D02*
X134167619Y-103111830D01*
X134167619Y-102921354D01*
X134215238Y-102826116D01*
X134310476Y-102778497D01*
X134691428Y-102778497D01*
X134786666Y-102826116D01*
X134834285Y-102921354D01*
X134834285Y-103111830D01*
X134786666Y-103207069D01*
X134691428Y-103254688D01*
X134596190Y-103254688D01*
X134500952Y-102778497D01*
X134167619Y-103683259D02*
X134834285Y-103683259D01*
X134643809Y-103683259D02*
X134739047Y-103730878D01*
X134786666Y-103778497D01*
X134834285Y-103873735D01*
X134834285Y-103968973D01*
X134834285Y-104159450D02*
X134834285Y-104540402D01*
X135167619Y-104302307D02*
X134310476Y-104302307D01*
X134215238Y-104349926D01*
X134167619Y-104445164D01*
X134167619Y-104540402D01*
X134834285Y-104778497D02*
X134167619Y-105016592D01*
X134834285Y-105254688D02*
X134167619Y-105016592D01*
X133929523Y-104921354D01*
X133881904Y-104873735D01*
X133834285Y-104778497D01*
X134167619Y-106540402D02*
X134215238Y-106445164D01*
X134262857Y-106397545D01*
X134358095Y-106349926D01*
X134643809Y-106349926D01*
X134739047Y-106397545D01*
X134786666Y-106445164D01*
X134834285Y-106540402D01*
X134834285Y-106683259D01*
X134786666Y-106778497D01*
X134739047Y-106826116D01*
X134643809Y-106873735D01*
X134358095Y-106873735D01*
X134262857Y-106826116D01*
X134215238Y-106778497D01*
X134167619Y-106683259D01*
X134167619Y-106540402D01*
X134834285Y-107159450D02*
X134834285Y-107540402D01*
X134167619Y-107302307D02*
X135024761Y-107302307D01*
X135120000Y-107349926D01*
X135167619Y-107445164D01*
X135167619Y-107540402D01*
X135167619Y-108635640D02*
X134358095Y-108635640D01*
X134262857Y-108683259D01*
X134215238Y-108730878D01*
X134167619Y-108826116D01*
X134167619Y-109016592D01*
X134215238Y-109111830D01*
X134262857Y-109159450D01*
X134358095Y-109207069D01*
X135167619Y-109207069D01*
X134834285Y-109683259D02*
X134167619Y-109683259D01*
X134739047Y-109683259D02*
X134786666Y-109730878D01*
X134834285Y-109826116D01*
X134834285Y-109968973D01*
X134786666Y-110064211D01*
X134691428Y-110111830D01*
X134167619Y-110111830D01*
X134167619Y-110588021D02*
X134834285Y-110588021D01*
X135167619Y-110588021D02*
X135120000Y-110540402D01*
X135072380Y-110588021D01*
X135120000Y-110635640D01*
X135167619Y-110588021D01*
X135072380Y-110588021D01*
X134834285Y-110921354D02*
X134834285Y-111302307D01*
X135167619Y-111064211D02*
X134310476Y-111064211D01*
X134215238Y-111111830D01*
X134167619Y-111207069D01*
X134167619Y-111302307D01*
X134215238Y-112016592D02*
X134167619Y-111921354D01*
X134167619Y-111730878D01*
X134215238Y-111635640D01*
X134310476Y-111588021D01*
X134691428Y-111588021D01*
X134786666Y-111635640D01*
X134834285Y-111730878D01*
X134834285Y-111921354D01*
X134786666Y-112016592D01*
X134691428Y-112064211D01*
X134596190Y-112064211D01*
X134500952Y-111588021D01*
X134167619Y-112921354D02*
X135167619Y-112921354D01*
X134215238Y-112921354D02*
X134167619Y-112826116D01*
X134167619Y-112635640D01*
X134215238Y-112540402D01*
X134262857Y-112492783D01*
X134358095Y-112445164D01*
X134643809Y-112445164D01*
X134739047Y-112492783D01*
X134786666Y-112540402D01*
X134834285Y-112635640D01*
X134834285Y-112826116D01*
X134786666Y-112921354D01*
X134691428Y-114492783D02*
X134691428Y-114159450D01*
X134167619Y-114159450D02*
X135167619Y-114159450D01*
X135167619Y-114635640D01*
X134215238Y-115397545D02*
X134167619Y-115302307D01*
X134167619Y-115111830D01*
X134215238Y-115016592D01*
X134310476Y-114968973D01*
X134691428Y-114968973D01*
X134786666Y-115016592D01*
X134834285Y-115111830D01*
X134834285Y-115302307D01*
X134786666Y-115397545D01*
X134691428Y-115445164D01*
X134596190Y-115445164D01*
X134500952Y-114968973D01*
X134167619Y-116302307D02*
X135167619Y-116302307D01*
X134215238Y-116302307D02*
X134167619Y-116207069D01*
X134167619Y-116016592D01*
X134215238Y-115921354D01*
X134262857Y-115873735D01*
X134358095Y-115826116D01*
X134643809Y-115826116D01*
X134739047Y-115873735D01*
X134786666Y-115921354D01*
X134834285Y-116016592D01*
X134834285Y-116207069D01*
X134786666Y-116302307D01*
X134215238Y-117159450D02*
X134167619Y-117064211D01*
X134167619Y-116873735D01*
X134215238Y-116778497D01*
X134310476Y-116730878D01*
X134691428Y-116730878D01*
X134786666Y-116778497D01*
X134834285Y-116873735D01*
X134834285Y-117064211D01*
X134786666Y-117159450D01*
X134691428Y-117207069D01*
X134596190Y-117207069D01*
X134500952Y-116730878D01*
X134167619Y-117635640D02*
X134834285Y-117635640D01*
X134643809Y-117635640D02*
X134739047Y-117683259D01*
X134786666Y-117730878D01*
X134834285Y-117826116D01*
X134834285Y-117921354D01*
X134167619Y-118683259D02*
X134691428Y-118683259D01*
X134786666Y-118635640D01*
X134834285Y-118540402D01*
X134834285Y-118349926D01*
X134786666Y-118254688D01*
X134215238Y-118683259D02*
X134167619Y-118588021D01*
X134167619Y-118349926D01*
X134215238Y-118254688D01*
X134310476Y-118207069D01*
X134405714Y-118207069D01*
X134500952Y-118254688D01*
X134548571Y-118349926D01*
X134548571Y-118588021D01*
X134596190Y-118683259D01*
X134834285Y-119016592D02*
X134834285Y-119397545D01*
X135167619Y-119159450D02*
X134310476Y-119159450D01*
X134215238Y-119207069D01*
X134167619Y-119302307D01*
X134167619Y-119397545D01*
X134167619Y-119730878D02*
X134834285Y-119730878D01*
X135167619Y-119730878D02*
X135120000Y-119683259D01*
X135072380Y-119730878D01*
X135120000Y-119778497D01*
X135167619Y-119730878D01*
X135072380Y-119730878D01*
X134167619Y-120349926D02*
X134215238Y-120254688D01*
X134262857Y-120207069D01*
X134358095Y-120159450D01*
X134643809Y-120159450D01*
X134739047Y-120207069D01*
X134786666Y-120254688D01*
X134834285Y-120349926D01*
X134834285Y-120492783D01*
X134786666Y-120588021D01*
X134739047Y-120635640D01*
X134643809Y-120683259D01*
X134358095Y-120683259D01*
X134262857Y-120635640D01*
X134215238Y-120588021D01*
X134167619Y-120492783D01*
X134167619Y-120349926D01*
X134834285Y-121111830D02*
X134167619Y-121111830D01*
X134739047Y-121111830D02*
X134786666Y-121159450D01*
X134834285Y-121254688D01*
X134834285Y-121397545D01*
X134786666Y-121492783D01*
X134691428Y-121540402D01*
X134167619Y-121540402D01*
X134167619Y-122921354D02*
X134215238Y-122826116D01*
X134262857Y-122778497D01*
X134358095Y-122730878D01*
X134643809Y-122730878D01*
X134739047Y-122778497D01*
X134786666Y-122826116D01*
X134834285Y-122921354D01*
X134834285Y-123064211D01*
X134786666Y-123159450D01*
X134739047Y-123207069D01*
X134643809Y-123254688D01*
X134358095Y-123254688D01*
X134262857Y-123207069D01*
X134215238Y-123159450D01*
X134167619Y-123064211D01*
X134167619Y-122921354D01*
X134834285Y-123540402D02*
X134834285Y-123921354D01*
X134167619Y-123683259D02*
X135024761Y-123683259D01*
X135120000Y-123730878D01*
X135167619Y-123826116D01*
X135167619Y-123921354D01*
X134167619Y-125016592D02*
X135167619Y-125016592D01*
X135167619Y-125397545D01*
X135120000Y-125492783D01*
X135072380Y-125540402D01*
X134977142Y-125588021D01*
X134834285Y-125588021D01*
X134739047Y-125540402D01*
X134691428Y-125492783D01*
X134643809Y-125397545D01*
X134643809Y-125016592D01*
X134167619Y-126159450D02*
X134215238Y-126064211D01*
X134310476Y-126016592D01*
X135167619Y-126016592D01*
X134167619Y-126968973D02*
X134691428Y-126968973D01*
X134786666Y-126921354D01*
X134834285Y-126826116D01*
X134834285Y-126635640D01*
X134786666Y-126540402D01*
X134215238Y-126968973D02*
X134167619Y-126873735D01*
X134167619Y-126635640D01*
X134215238Y-126540402D01*
X134310476Y-126492783D01*
X134405714Y-126492783D01*
X134500952Y-126540402D01*
X134548571Y-126635640D01*
X134548571Y-126873735D01*
X134596190Y-126968973D01*
X134834285Y-127445164D02*
X134167619Y-127445164D01*
X134739047Y-127445164D02*
X134786666Y-127492783D01*
X134834285Y-127588021D01*
X134834285Y-127730878D01*
X134786666Y-127826116D01*
X134691428Y-127873735D01*
X134167619Y-127873735D01*
X134215238Y-128730878D02*
X134167619Y-128635640D01*
X134167619Y-128445164D01*
X134215238Y-128349926D01*
X134310476Y-128302307D01*
X134691428Y-128302307D01*
X134786666Y-128349926D01*
X134834285Y-128445164D01*
X134834285Y-128635640D01*
X134786666Y-128730878D01*
X134691428Y-128778497D01*
X134596190Y-128778497D01*
X134500952Y-128302307D01*
X134834285Y-129064211D02*
X134834285Y-129445164D01*
X135167619Y-129207069D02*
X134310476Y-129207069D01*
X134215238Y-129254688D01*
X134167619Y-129349926D01*
X134167619Y-129445164D01*
X134215238Y-129730878D02*
X134167619Y-129826116D01*
X134167619Y-130016592D01*
X134215238Y-130111830D01*
X134310476Y-130159449D01*
X134358095Y-130159449D01*
X134453333Y-130111830D01*
X134500952Y-130016592D01*
X134500952Y-129873735D01*
X134548571Y-129778497D01*
X134643809Y-129730878D01*
X134691428Y-129730878D01*
X134786666Y-129778497D01*
X134834285Y-129873735D01*
X134834285Y-130016592D01*
X134786666Y-130111830D01*
D12*
X136617142Y-99469857D02*
X137817142Y-99619857D01*
X137817142Y-100077000D01*
X137760000Y-100184142D01*
X137702857Y-100234142D01*
X137588571Y-100277000D01*
X137417142Y-100255571D01*
X137302857Y-100184142D01*
X137245714Y-100119857D01*
X137188571Y-99998428D01*
X137188571Y-99541285D01*
X136617142Y-100669857D02*
X137817142Y-100819857D01*
X136617142Y-101184142D02*
X137245714Y-101262714D01*
X137360000Y-101219857D01*
X137417142Y-101112714D01*
X137417142Y-100941285D01*
X137360000Y-100819857D01*
X137302857Y-100755571D01*
X136617142Y-102269857D02*
X137245714Y-102348428D01*
X137360000Y-102305571D01*
X137417142Y-102198428D01*
X137417142Y-101969857D01*
X137360000Y-101848428D01*
X136674285Y-102277000D02*
X136617142Y-102155571D01*
X136617142Y-101869857D01*
X136674285Y-101762714D01*
X136788571Y-101719857D01*
X136902857Y-101734142D01*
X137017142Y-101805571D01*
X137074285Y-101927000D01*
X137074285Y-102212714D01*
X137131428Y-102334142D01*
X136674285Y-102791285D02*
X136617142Y-102898428D01*
X136617142Y-103127000D01*
X136674285Y-103248428D01*
X136788571Y-103319857D01*
X136845714Y-103327000D01*
X136960000Y-103284142D01*
X137017142Y-103177000D01*
X137017142Y-103005571D01*
X137074285Y-102898428D01*
X137188571Y-102855571D01*
X137245714Y-102862714D01*
X137360000Y-102934142D01*
X137417142Y-103055571D01*
X137417142Y-103227000D01*
X137360000Y-103334142D01*
X136674285Y-104277000D02*
X136617142Y-104155571D01*
X136617142Y-103927000D01*
X136674285Y-103819857D01*
X136788571Y-103777000D01*
X137245714Y-103834142D01*
X137360000Y-103905571D01*
X137417142Y-104027000D01*
X137417142Y-104255571D01*
X137360000Y-104362714D01*
X137245714Y-104405571D01*
X137131428Y-104391285D01*
X137017142Y-103805571D01*
X136617142Y-104841285D02*
X137417142Y-104941285D01*
X137188571Y-104912714D02*
X137302857Y-104984142D01*
X137360000Y-105048428D01*
X137417142Y-105169857D01*
X137417142Y-105284142D01*
X137417142Y-106484142D02*
X136617142Y-106669857D01*
X137417142Y-107055571D01*
X137817142Y-107448428D02*
X137817142Y-108191285D01*
X137360000Y-107734142D01*
X137360000Y-107905571D01*
X137302857Y-108012714D01*
X137245714Y-108062714D01*
X137131428Y-108105571D01*
X136845714Y-108069857D01*
X136731428Y-107998428D01*
X136674285Y-107934142D01*
X136617142Y-107812714D01*
X136617142Y-107469857D01*
X136674285Y-107362714D01*
X136731428Y-107312714D01*
X136731428Y-108569857D02*
X136674285Y-108619857D01*
X136617142Y-108555571D01*
X136674285Y-108505571D01*
X136731428Y-108569857D01*
X136617142Y-108555571D01*
X137817142Y-109505571D02*
X137817142Y-109619857D01*
X137760000Y-109727000D01*
X137702857Y-109777000D01*
X137588571Y-109819857D01*
X137360000Y-109848428D01*
X137074285Y-109812714D01*
X136845714Y-109727000D01*
X136731428Y-109655571D01*
X136674285Y-109591285D01*
X136617142Y-109469857D01*
X136617142Y-109355571D01*
X136674285Y-109248428D01*
X136731428Y-109198428D01*
X136845714Y-109155571D01*
X137074285Y-109127000D01*
X137360000Y-109162714D01*
X137588571Y-109248428D01*
X137702857Y-109319857D01*
X137760000Y-109384142D01*
X137817142Y-109505571D01*
D11*
X118118095Y-112482380D02*
X118118095Y-113291904D01*
X118165714Y-113387142D01*
X118213333Y-113434761D01*
X118308571Y-113482380D01*
X118499047Y-113482380D01*
X118594285Y-113434761D01*
X118641904Y-113387142D01*
X118689523Y-113291904D01*
X118689523Y-112482380D01*
X119118095Y-113434761D02*
X119260952Y-113482380D01*
X119499047Y-113482380D01*
X119594285Y-113434761D01*
X119641904Y-113387142D01*
X119689523Y-113291904D01*
X119689523Y-113196666D01*
X119641904Y-113101428D01*
X119594285Y-113053809D01*
X119499047Y-113006190D01*
X119308571Y-112958571D01*
X119213333Y-112910952D01*
X119165714Y-112863333D01*
X119118095Y-112768095D01*
X119118095Y-112672857D01*
X119165714Y-112577619D01*
X119213333Y-112530000D01*
X119308571Y-112482380D01*
X119546666Y-112482380D01*
X119689523Y-112530000D01*
X120451428Y-112958571D02*
X120594285Y-113006190D01*
X120641904Y-113053809D01*
X120689523Y-113149047D01*
X120689523Y-113291904D01*
X120641904Y-113387142D01*
X120594285Y-113434761D01*
X120499047Y-113482380D01*
X120118095Y-113482380D01*
X120118095Y-112482380D01*
X120451428Y-112482380D01*
X120546666Y-112530000D01*
X120594285Y-112577619D01*
X120641904Y-112672857D01*
X120641904Y-112768095D01*
X120594285Y-112863333D01*
X120546666Y-112910952D01*
X120451428Y-112958571D01*
X120118095Y-112958571D01*
X130643333Y-98147142D02*
X130595714Y-98194761D01*
X130452857Y-98242380D01*
X130357619Y-98242380D01*
X130214761Y-98194761D01*
X130119523Y-98099523D01*
X130071904Y-98004285D01*
X130024285Y-97813809D01*
X130024285Y-97670952D01*
X130071904Y-97480476D01*
X130119523Y-97385238D01*
X130214761Y-97290000D01*
X130357619Y-97242380D01*
X130452857Y-97242380D01*
X130595714Y-97290000D01*
X130643333Y-97337619D01*
X131024285Y-97337619D02*
X131071904Y-97290000D01*
X131167142Y-97242380D01*
X131405238Y-97242380D01*
X131500476Y-97290000D01*
X131548095Y-97337619D01*
X131595714Y-97432857D01*
X131595714Y-97528095D01*
X131548095Y-97670952D01*
X130976666Y-98242380D01*
X131595714Y-98242380D01*
X116078095Y-150554761D02*
X116220952Y-150602380D01*
X116459047Y-150602380D01*
X116554285Y-150554761D01*
X116601904Y-150507142D01*
X116649523Y-150411904D01*
X116649523Y-150316666D01*
X116601904Y-150221428D01*
X116554285Y-150173809D01*
X116459047Y-150126190D01*
X116268571Y-150078571D01*
X116173333Y-150030952D01*
X116125714Y-149983333D01*
X116078095Y-149888095D01*
X116078095Y-149792857D01*
X116125714Y-149697619D01*
X116173333Y-149650000D01*
X116268571Y-149602380D01*
X116506666Y-149602380D01*
X116649523Y-149650000D01*
X117601904Y-150602380D02*
X117030476Y-150602380D01*
X117316190Y-150602380D02*
X117316190Y-149602380D01*
X117220952Y-149745238D01*
X117125714Y-149840476D01*
X117030476Y-149888095D01*
X103973333Y-94432380D02*
X103640000Y-93956190D01*
X103401904Y-94432380D02*
X103401904Y-93432380D01*
X103782857Y-93432380D01*
X103878095Y-93480000D01*
X103925714Y-93527619D01*
X103973333Y-93622857D01*
X103973333Y-93765714D01*
X103925714Y-93860952D01*
X103878095Y-93908571D01*
X103782857Y-93956190D01*
X103401904Y-93956190D01*
X104354285Y-93527619D02*
X104401904Y-93480000D01*
X104497142Y-93432380D01*
X104735238Y-93432380D01*
X104830476Y-93480000D01*
X104878095Y-93527619D01*
X104925714Y-93622857D01*
X104925714Y-93718095D01*
X104878095Y-93860952D01*
X104306666Y-94432380D01*
X104925714Y-94432380D01*
X115403333Y-104592380D02*
X115070000Y-104116190D01*
X114831904Y-104592380D02*
X114831904Y-103592380D01*
X115212857Y-103592380D01*
X115308095Y-103640000D01*
X115355714Y-103687619D01*
X115403333Y-103782857D01*
X115403333Y-103925714D01*
X115355714Y-104020952D01*
X115308095Y-104068571D01*
X115212857Y-104116190D01*
X114831904Y-104116190D01*
X116355714Y-104592380D02*
X115784285Y-104592380D01*
X116070000Y-104592380D02*
X116070000Y-103592380D01*
X115974761Y-103735238D01*
X115879523Y-103830476D01*
X115784285Y-103878095D01*
X118014761Y-90577619D02*
X117919523Y-90530000D01*
X117824285Y-90434761D01*
X117681428Y-90291904D01*
X117586190Y-90244285D01*
X117490952Y-90244285D01*
X117538571Y-90482380D02*
X117443333Y-90434761D01*
X117348095Y-90339523D01*
X117300476Y-90149047D01*
X117300476Y-89815714D01*
X117348095Y-89625238D01*
X117443333Y-89530000D01*
X117538571Y-89482380D01*
X117729047Y-89482380D01*
X117824285Y-89530000D01*
X117919523Y-89625238D01*
X117967142Y-89815714D01*
X117967142Y-90149047D01*
X117919523Y-90339523D01*
X117824285Y-90434761D01*
X117729047Y-90482380D01*
X117538571Y-90482380D01*
X118919523Y-90482380D02*
X118348095Y-90482380D01*
X118633809Y-90482380D02*
X118633809Y-89482380D01*
X118538571Y-89625238D01*
X118443333Y-89720476D01*
X118348095Y-89768095D01*
X118665714Y-82716666D02*
X119141904Y-82716666D01*
X118570476Y-83002380D02*
X118903809Y-82002380D01*
X119237142Y-83002380D01*
X120094285Y-83002380D02*
X119522857Y-83002380D01*
X119808571Y-83002380D02*
X119808571Y-82002380D01*
X119713333Y-82145238D01*
X119618095Y-82240476D01*
X119522857Y-82288095D01*
D10*
X133183333Y-91797142D02*
X133135714Y-91844761D01*
X132992857Y-91892380D01*
X132897619Y-91892380D01*
X132754761Y-91844761D01*
X132659523Y-91749523D01*
X132611904Y-91654285D01*
X132564285Y-91463809D01*
X132564285Y-91320952D01*
X132611904Y-91130476D01*
X132659523Y-91035238D01*
X132754761Y-90940000D01*
X132897619Y-90892380D01*
X132992857Y-90892380D01*
X133135714Y-90940000D01*
X133183333Y-90987619D01*
X134135714Y-91892380D02*
X133564285Y-91892380D01*
X133850000Y-91892380D02*
X133850000Y-90892380D01*
X133754761Y-91035238D01*
X133659523Y-91130476D01*
X133564285Y-91178095D01*
D11*
X135247142Y-141172380D02*
X134770952Y-141172380D01*
X134770952Y-140172380D01*
X135532857Y-141124761D02*
X135675714Y-141172380D01*
X135913809Y-141172380D01*
X136009047Y-141124761D01*
X136056666Y-141077142D01*
X136104285Y-140981904D01*
X136104285Y-140886666D01*
X136056666Y-140791428D01*
X136009047Y-140743809D01*
X135913809Y-140696190D01*
X135723333Y-140648571D01*
X135628095Y-140600952D01*
X135580476Y-140553333D01*
X135532857Y-140458095D01*
X135532857Y-140362857D01*
X135580476Y-140267619D01*
X135628095Y-140220000D01*
X135723333Y-140172380D01*
X135961428Y-140172380D01*
X136104285Y-140220000D01*
X137056666Y-141172380D02*
X136485238Y-141172380D01*
X136770952Y-141172380D02*
X136770952Y-140172380D01*
X136675714Y-140315238D01*
X136580476Y-140410476D01*
X136485238Y-140458095D01*
D10*
X125349047Y-132151428D02*
X126110952Y-132151428D01*
X125730000Y-132532380D02*
X125730000Y-131770476D01*
X115403333Y-120212380D02*
X115070000Y-119736190D01*
X114831904Y-120212380D02*
X114831904Y-119212380D01*
X115212857Y-119212380D01*
X115308095Y-119260000D01*
X115355714Y-119307619D01*
X115403333Y-119402857D01*
X115403333Y-119545714D01*
X115355714Y-119640952D01*
X115308095Y-119688571D01*
X115212857Y-119736190D01*
X114831904Y-119736190D01*
X115736666Y-119212380D02*
X116403333Y-119212380D01*
X115974761Y-120212380D01*
D11*
X106513333Y-99512380D02*
X106180000Y-99036190D01*
X105941904Y-99512380D02*
X105941904Y-98512380D01*
X106322857Y-98512380D01*
X106418095Y-98560000D01*
X106465714Y-98607619D01*
X106513333Y-98702857D01*
X106513333Y-98845714D01*
X106465714Y-98940952D01*
X106418095Y-98988571D01*
X106322857Y-99036190D01*
X105941904Y-99036190D01*
X107370476Y-98845714D02*
X107370476Y-99512380D01*
X107132380Y-98464761D02*
X106894285Y-99179047D01*
X107513333Y-99179047D01*
X136398095Y-87082380D02*
X136398095Y-87891904D01*
X136445714Y-87987142D01*
X136493333Y-88034761D01*
X136588571Y-88082380D01*
X136779047Y-88082380D01*
X136874285Y-88034761D01*
X136921904Y-87987142D01*
X136969523Y-87891904D01*
X136969523Y-87082380D01*
X137969523Y-88082380D02*
X137398095Y-88082380D01*
X137683809Y-88082380D02*
X137683809Y-87082380D01*
X137588571Y-87225238D01*
X137493333Y-87320476D01*
X137398095Y-87368095D01*
X128801904Y-150462380D02*
X128801904Y-149462380D01*
X129040000Y-149462380D01*
X129182857Y-149510000D01*
X129278095Y-149605238D01*
X129325714Y-149700476D01*
X129373333Y-149890952D01*
X129373333Y-150033809D01*
X129325714Y-150224285D01*
X129278095Y-150319523D01*
X129182857Y-150414761D01*
X129040000Y-150462380D01*
X128801904Y-150462380D01*
X129754285Y-149557619D02*
X129801904Y-149510000D01*
X129897142Y-149462380D01*
X130135238Y-149462380D01*
X130230476Y-149510000D01*
X130278095Y-149557619D01*
X130325714Y-149652857D01*
X130325714Y-149748095D01*
X130278095Y-149890952D01*
X129706666Y-150462380D01*
X130325714Y-150462380D01*
X115760833Y-98622380D02*
X115427500Y-98146190D01*
X115189404Y-98622380D02*
X115189404Y-97622380D01*
X115570357Y-97622380D01*
X115665595Y-97670000D01*
X115713214Y-97717619D01*
X115760833Y-97812857D01*
X115760833Y-97955714D01*
X115713214Y-98050952D01*
X115665595Y-98098571D01*
X115570357Y-98146190D01*
X115189404Y-98146190D01*
X116665595Y-97622380D02*
X116189404Y-97622380D01*
X116141785Y-98098571D01*
X116189404Y-98050952D01*
X116284642Y-98003333D01*
X116522738Y-98003333D01*
X116617976Y-98050952D01*
X116665595Y-98098571D01*
X116713214Y-98193809D01*
X116713214Y-98431904D01*
X116665595Y-98527142D01*
X116617976Y-98574761D01*
X116522738Y-98622380D01*
X116284642Y-98622380D01*
X116189404Y-98574761D01*
X116141785Y-98527142D01*
X107211904Y-108552380D02*
X107211904Y-107552380D01*
X107450000Y-107552380D01*
X107592857Y-107600000D01*
X107688095Y-107695238D01*
X107735714Y-107790476D01*
X107783333Y-107980952D01*
X107783333Y-108123809D01*
X107735714Y-108314285D01*
X107688095Y-108409523D01*
X107592857Y-108504761D01*
X107450000Y-108552380D01*
X107211904Y-108552380D01*
X108116666Y-107552380D02*
X108735714Y-107552380D01*
X108402380Y-107933333D01*
X108545238Y-107933333D01*
X108640476Y-107980952D01*
X108688095Y-108028571D01*
X108735714Y-108123809D01*
X108735714Y-108361904D01*
X108688095Y-108457142D01*
X108640476Y-108504761D01*
X108545238Y-108552380D01*
X108259523Y-108552380D01*
X108164285Y-108504761D01*
X108116666Y-108457142D01*
X105941904Y-89352380D02*
X105941904Y-88352380D01*
X106180000Y-88352380D01*
X106322857Y-88400000D01*
X106418095Y-88495238D01*
X106465714Y-88590476D01*
X106513333Y-88780952D01*
X106513333Y-88923809D01*
X106465714Y-89114285D01*
X106418095Y-89209523D01*
X106322857Y-89304761D01*
X106180000Y-89352380D01*
X105941904Y-89352380D01*
X107465714Y-89352380D02*
X106894285Y-89352380D01*
X107180000Y-89352380D02*
X107180000Y-88352380D01*
X107084761Y-88495238D01*
X106989523Y-88590476D01*
X106894285Y-88638095D01*
D13*
X130548748Y-95985000D02*
X131071252Y-95985000D01*
X130548748Y-94515000D02*
X131071252Y-94515000D01*
X114590000Y-148030000D02*
X119090000Y-148030000D01*
X119090000Y-141530000D02*
X114590000Y-141530000D01*
X113340000Y-144030000D02*
X113340000Y-145530000D01*
X120340000Y-145530000D02*
X120340000Y-144030000D01*
X105540436Y-90705000D02*
X105994564Y-90705000D01*
X105540436Y-92175000D02*
X105994564Y-92175000D01*
X116154564Y-100865000D02*
X115700436Y-100865000D01*
X116154564Y-102335000D02*
X115700436Y-102335000D01*
X118110000Y-89190000D02*
X117460000Y-89190000D01*
X118110000Y-86070000D02*
X117460000Y-86070000D01*
X118110000Y-86070000D02*
X118760000Y-86070000D01*
X118110000Y-89190000D02*
X119785000Y-89190000D01*
X110360000Y-124590000D02*
X128400000Y-124590000D01*
X125730000Y-121920000D02*
X128400000Y-121920000D01*
X113030000Y-83820000D02*
X110360000Y-83820000D01*
X110360000Y-86360000D02*
X110360000Y-124590000D01*
X128400000Y-124590000D02*
X128400000Y-81150000D01*
X125730000Y-83820000D02*
X125730000Y-121920000D01*
X128400000Y-81150000D02*
X110360000Y-81150000D01*
X113030000Y-121920000D02*
X110360000Y-121920000D01*
X113030000Y-86360000D02*
X113030000Y-121920000D01*
X113030000Y-86360000D02*
X110360000Y-86360000D01*
X110360000Y-81150000D02*
X110360000Y-83820000D01*
X113030000Y-86360000D02*
X113030000Y-83820000D01*
X125730000Y-83820000D02*
X128400000Y-83820000D01*
X130548748Y-89435000D02*
X131071252Y-89435000D01*
X130548748Y-90905000D02*
X131071252Y-90905000D01*
X135640000Y-134620000D02*
G75*
G03*
X135640000Y-134620000I-6100000J0D01*
G01*
X115797064Y-117375000D02*
X115342936Y-117375000D01*
X115797064Y-118845000D02*
X115342936Y-118845000D01*
X105994564Y-95785000D02*
X105540436Y-95785000D01*
X105994564Y-97255000D02*
X105540436Y-97255000D01*
X132020000Y-83590000D02*
X137110000Y-83590000D01*
X132020000Y-86600000D02*
X134620000Y-86600000D01*
X132020000Y-83930000D02*
X132020000Y-83590000D01*
X132020000Y-86250000D02*
X132020000Y-86600000D01*
X136719917Y-83588264D02*
G75*
G03*
X132520000Y-83590000I-2099917J-101738D01*
G01*
X132100000Y-147595000D02*
X132100000Y-144505000D01*
X126550000Y-146049538D02*
G75*
G03*
X132100000Y-147594830I2990000J-462D01*
G01*
X132100000Y-144505170D02*
G75*
G03*
X126550000Y-146050462I-2560000J-1544830D01*
G01*
X132040000Y-146050000D02*
G75*
G03*
X132040000Y-146050000I-2500000J0D01*
G01*
X116154564Y-95785000D02*
X115700436Y-95785000D01*
X116154564Y-97255000D02*
X115700436Y-97255000D01*
X109240000Y-105685000D02*
X109240000Y-102595000D01*
X103690000Y-104139538D02*
G75*
G03*
X109240000Y-105684830I2990000J-462D01*
G01*
X109240000Y-102595170D02*
G75*
G03*
X103690000Y-104140462I-2560000J-1544830D01*
G01*
X109180000Y-104140000D02*
G75*
G03*
X109180000Y-104140000I-2500000J0D01*
G01*
X104120000Y-82275000D02*
X104120000Y-85365000D01*
X109670000Y-83820462D02*
G75*
G03*
X104120000Y-82275170I-2990000J462D01*
G01*
X104120000Y-85364830D02*
G75*
G03*
X109670000Y-83819538I2560000J1544830D01*
G01*
X109180000Y-83820000D02*
G75*
G03*
X109180000Y-83820000I-2500000J0D01*
G01*
%LPC*%
D14*
X129860000Y-95250000D03*
X131760000Y-95250000D03*
D15*
X113590000Y-142530000D03*
X120090000Y-142530000D03*
X113590000Y-147030000D03*
X120090000Y-147030000D03*
D16*
X104855000Y-91440000D03*
X106680000Y-91440000D03*
D17*
X116840000Y-101600000D03*
X115015000Y-101600000D03*
D18*
X119047500Y-88580000D03*
X119047500Y-86680000D03*
X117172500Y-87630000D03*
D19*
X111760000Y-85090000D03*
D20*
X111760000Y-87630000D03*
X111760000Y-90170000D03*
X111760000Y-92710000D03*
X111760000Y-95250000D03*
X111760000Y-97790000D03*
X111760000Y-100330000D03*
X111760000Y-102870000D03*
X111760000Y-105410000D03*
X111760000Y-107950000D03*
X111760000Y-110490000D03*
X111760000Y-113030000D03*
X111760000Y-115570000D03*
X111760000Y-118110000D03*
X111760000Y-120650000D03*
X127000000Y-120650000D03*
X127000000Y-118110000D03*
X127000000Y-115570000D03*
X127000000Y-113030000D03*
X127000000Y-110490000D03*
X127000000Y-107950000D03*
X127000000Y-105410000D03*
X127000000Y-102870000D03*
X127000000Y-100330000D03*
X127000000Y-97790000D03*
X127000000Y-95250000D03*
X127000000Y-92710000D03*
X127000000Y-90170000D03*
X127000000Y-87630000D03*
X127000000Y-85090000D03*
D14*
X129860000Y-90170000D03*
X131760000Y-90170000D03*
D21*
X125740000Y-134620000D03*
D15*
X133340000Y-134620000D03*
D17*
X116482500Y-118110000D03*
X114657500Y-118110000D03*
X106680000Y-96520000D03*
X104855000Y-96520000D03*
D22*
X137160000Y-85090000D03*
D23*
X134620000Y-85090000D03*
X132080000Y-85090000D03*
D24*
X130810000Y-146050000D03*
D23*
X128270000Y-146050000D03*
D17*
X116840000Y-96520000D03*
X115015000Y-96520000D03*
D24*
X107950000Y-104140000D03*
D23*
X105410000Y-104140000D03*
D25*
X105410000Y-83820000D03*
D23*
X107950000Y-83820000D03*
M02*
