G04 #@! TF.GenerationSoftware,KiCad,Pcbnew,6.0.1-79c1e3a40b~116~ubuntu20.04.1*
G04 #@! TF.CreationDate,2022-02-01T23:26:21-08:00*
G04 #@! TF.ProjectId,Laser_Tag,4c617365-725f-4546-9167-2e6b69636164,2-1-22*
G04 #@! TF.SameCoordinates,Original*
G04 #@! TF.FileFunction,Soldermask,Bot*
G04 #@! TF.FilePolarity,Negative*
%FSLAX46Y46*%
G04 Gerber Fmt 4.6, Leading zero omitted, Abs format (unit mm)*
G04 Created by KiCad (PCBNEW 6.0.1-79c1e3a40b~116~ubuntu20.04.1) date 2022-02-01 23:26:21*
%MOMM*%
%LPD*%
G01*
G04 APERTURE LIST*
G04 Aperture macros list*
%AMRoundRect*
0 Rectangle with rounded corners*
0 $1 Rounding radius*
0 $2 $3 $4 $5 $6 $7 $8 $9 X,Y pos of 4 corners*
0 Add a 4 corners polygon primitive as box body*
4,1,4,$2,$3,$4,$5,$6,$7,$8,$9,$2,$3,0*
0 Add four circle primitives for the rounded corners*
1,1,$1+$1,$2,$3*
1,1,$1+$1,$4,$5*
1,1,$1+$1,$6,$7*
1,1,$1+$1,$8,$9*
0 Add four rect primitives between the rounded corners*
20,1,$1+$1,$2,$3,$4,$5,0*
20,1,$1+$1,$4,$5,$6,$7,0*
20,1,$1+$1,$6,$7,$8,$9,0*
20,1,$1+$1,$8,$9,$2,$3,0*%
G04 Aperture macros list end*
%ADD10C,2.102000*%
%ADD11RoundRect,0.051000X-0.800000X-0.800000X0.800000X-0.800000X0.800000X0.800000X-0.800000X0.800000X0*%
%ADD12O,1.702000X1.702000*%
%ADD13RoundRect,0.051000X-1.000000X-1.000000X1.000000X-1.000000X1.000000X1.000000X-1.000000X1.000000X0*%
%ADD14RoundRect,0.301200X0.649800X0.649800X-0.649800X0.649800X-0.649800X-0.649800X0.649800X-0.649800X0*%
%ADD15C,1.902000*%
%ADD16RoundRect,0.051000X0.900000X0.900000X-0.900000X0.900000X-0.900000X-0.900000X0.900000X-0.900000X0*%
%ADD17RoundRect,0.051000X-0.900000X-0.900000X0.900000X-0.900000X0.900000X0.900000X-0.900000X0.900000X0*%
G04 APERTURE END LIST*
D10*
X113590000Y-142530000D03*
X120090000Y-142530000D03*
X113590000Y-147030000D03*
X120090000Y-147030000D03*
D11*
X111760000Y-85090000D03*
D12*
X111760000Y-87630000D03*
X111760000Y-90170000D03*
X111760000Y-92710000D03*
X111760000Y-95250000D03*
X111760000Y-97790000D03*
X111760000Y-100330000D03*
X111760000Y-102870000D03*
X111760000Y-105410000D03*
X111760000Y-107950000D03*
X111760000Y-110490000D03*
X111760000Y-113030000D03*
X111760000Y-115570000D03*
X111760000Y-118110000D03*
X111760000Y-120650000D03*
X127000000Y-120650000D03*
X127000000Y-118110000D03*
X127000000Y-115570000D03*
X127000000Y-113030000D03*
X127000000Y-110490000D03*
X127000000Y-107950000D03*
X127000000Y-105410000D03*
X127000000Y-102870000D03*
X127000000Y-100330000D03*
X127000000Y-97790000D03*
X127000000Y-95250000D03*
X127000000Y-92710000D03*
X127000000Y-90170000D03*
X127000000Y-87630000D03*
X127000000Y-85090000D03*
D13*
X125740000Y-134620000D03*
D10*
X133340000Y-134620000D03*
D14*
X137160000Y-85090000D03*
D15*
X134620000Y-85090000D03*
X132080000Y-85090000D03*
D16*
X130810000Y-146050000D03*
D15*
X128270000Y-146050000D03*
D16*
X107950000Y-104140000D03*
D15*
X105410000Y-104140000D03*
D17*
X105410000Y-83820000D03*
D15*
X107950000Y-83820000D03*
M02*
