G04 #@! TF.GenerationSoftware,KiCad,Pcbnew,6.0.1-79c1e3a40b~116~ubuntu20.04.1*
G04 #@! TF.CreationDate,2022-02-01T23:26:20-08:00*
G04 #@! TF.ProjectId,Laser_Tag,4c617365-725f-4546-9167-2e6b69636164,2-1-22*
G04 #@! TF.SameCoordinates,Original*
G04 #@! TF.FileFunction,Copper,L1,Top*
G04 #@! TF.FilePolarity,Positive*
%FSLAX46Y46*%
G04 Gerber Fmt 4.6, Leading zero omitted, Abs format (unit mm)*
G04 Created by KiCad (PCBNEW 6.0.1-79c1e3a40b~116~ubuntu20.04.1) date 2022-02-01 23:26:20*
%MOMM*%
%LPD*%
G01*
G04 APERTURE LIST*
G04 Aperture macros list*
%AMRoundRect*
0 Rectangle with rounded corners*
0 $1 Rounding radius*
0 $2 $3 $4 $5 $6 $7 $8 $9 X,Y pos of 4 corners*
0 Add a 4 corners polygon primitive as box body*
4,1,4,$2,$3,$4,$5,$6,$7,$8,$9,$2,$3,0*
0 Add four circle primitives for the rounded corners*
1,1,$1+$1,$2,$3*
1,1,$1+$1,$4,$5*
1,1,$1+$1,$6,$7*
1,1,$1+$1,$8,$9*
0 Add four rect primitives between the rounded corners*
20,1,$1+$1,$2,$3,$4,$5,0*
20,1,$1+$1,$4,$5,$6,$7,0*
20,1,$1+$1,$6,$7,$8,$9,0*
20,1,$1+$1,$8,$9,$2,$3,0*%
G04 Aperture macros list end*
G04 #@! TA.AperFunction,SMDPad,CuDef*
%ADD10RoundRect,0.250000X-0.250000X-0.475000X0.250000X-0.475000X0.250000X0.475000X-0.250000X0.475000X0*%
G04 #@! TD*
G04 #@! TA.AperFunction,ComponentPad*
%ADD11C,2.000000*%
G04 #@! TD*
G04 #@! TA.AperFunction,SMDPad,CuDef*
%ADD12RoundRect,0.250000X-0.262500X-0.450000X0.262500X-0.450000X0.262500X0.450000X-0.262500X0.450000X0*%
G04 #@! TD*
G04 #@! TA.AperFunction,SMDPad,CuDef*
%ADD13RoundRect,0.250000X0.262500X0.450000X-0.262500X0.450000X-0.262500X-0.450000X0.262500X-0.450000X0*%
G04 #@! TD*
G04 #@! TA.AperFunction,SMDPad,CuDef*
%ADD14RoundRect,0.150000X0.587500X0.150000X-0.587500X0.150000X-0.587500X-0.150000X0.587500X-0.150000X0*%
G04 #@! TD*
G04 #@! TA.AperFunction,ComponentPad*
%ADD15R,1.600000X1.600000*%
G04 #@! TD*
G04 #@! TA.AperFunction,ComponentPad*
%ADD16O,1.600000X1.600000*%
G04 #@! TD*
G04 #@! TA.AperFunction,ComponentPad*
%ADD17R,2.000000X2.000000*%
G04 #@! TD*
G04 #@! TA.AperFunction,ComponentPad*
%ADD18RoundRect,0.250200X0.649800X0.649800X-0.649800X0.649800X-0.649800X-0.649800X0.649800X-0.649800X0*%
G04 #@! TD*
G04 #@! TA.AperFunction,ComponentPad*
%ADD19C,1.800000*%
G04 #@! TD*
G04 #@! TA.AperFunction,ComponentPad*
%ADD20R,1.800000X1.800000*%
G04 #@! TD*
G04 #@! TA.AperFunction,ViaPad*
%ADD21C,0.800000*%
G04 #@! TD*
G04 #@! TA.AperFunction,Conductor*
%ADD22C,0.250000*%
G04 #@! TD*
G04 APERTURE END LIST*
D10*
X129860000Y-95250000D03*
X131760000Y-95250000D03*
D11*
X113590000Y-142530000D03*
X120090000Y-142530000D03*
X113590000Y-147030000D03*
X120090000Y-147030000D03*
D12*
X104855000Y-91440000D03*
X106680000Y-91440000D03*
D13*
X116840000Y-101600000D03*
X115015000Y-101600000D03*
D14*
X119047500Y-88580000D03*
X119047500Y-86680000D03*
X117172500Y-87630000D03*
D15*
X111760000Y-85090000D03*
D16*
X111760000Y-87630000D03*
X111760000Y-90170000D03*
X111760000Y-92710000D03*
X111760000Y-95250000D03*
X111760000Y-97790000D03*
X111760000Y-100330000D03*
X111760000Y-102870000D03*
X111760000Y-105410000D03*
X111760000Y-107950000D03*
X111760000Y-110490000D03*
X111760000Y-113030000D03*
X111760000Y-115570000D03*
X111760000Y-118110000D03*
X111760000Y-120650000D03*
X127000000Y-120650000D03*
X127000000Y-118110000D03*
X127000000Y-115570000D03*
X127000000Y-113030000D03*
X127000000Y-110490000D03*
X127000000Y-107950000D03*
X127000000Y-105410000D03*
X127000000Y-102870000D03*
X127000000Y-100330000D03*
X127000000Y-97790000D03*
X127000000Y-95250000D03*
X127000000Y-92710000D03*
X127000000Y-90170000D03*
X127000000Y-87630000D03*
X127000000Y-85090000D03*
D10*
X129860000Y-90170000D03*
X131760000Y-90170000D03*
D17*
X125740000Y-134620000D03*
D11*
X133340000Y-134620000D03*
D13*
X116482500Y-118110000D03*
X114657500Y-118110000D03*
X106680000Y-96520000D03*
X104855000Y-96520000D03*
D18*
X137160000Y-85090000D03*
D19*
X134620000Y-85090000D03*
X132080000Y-85090000D03*
D20*
X130810000Y-146050000D03*
D19*
X128270000Y-146050000D03*
D13*
X116840000Y-96520000D03*
X115015000Y-96520000D03*
D20*
X107950000Y-104140000D03*
D19*
X105410000Y-104140000D03*
D20*
X105410000Y-83820000D03*
D19*
X107950000Y-83820000D03*
D21*
X131760000Y-90170000D03*
X119380000Y-86360000D03*
X132080000Y-95250000D03*
X116840000Y-101600000D03*
X129540000Y-95250000D03*
X106680000Y-96520000D03*
X116840000Y-118110000D03*
X106680000Y-91440000D03*
X119380000Y-88900000D03*
X116840000Y-96520000D03*
D22*
X120090000Y-147030000D02*
X121090000Y-148030000D01*
X121090000Y-148030000D02*
X128830000Y-148030000D01*
X128830000Y-148030000D02*
X130810000Y-146050000D01*
X129220000Y-87630000D02*
X131760000Y-90170000D01*
X127000000Y-87630000D02*
X119997500Y-87630000D01*
X119997500Y-87630000D02*
X119047500Y-86680000D01*
X127000000Y-87630000D02*
X129220000Y-87630000D01*
X137160000Y-91440000D02*
X137160000Y-85090000D01*
X134620000Y-93980000D02*
X137160000Y-91440000D01*
X111760000Y-95250000D02*
X113030000Y-93980000D01*
X113030000Y-93980000D02*
X134620000Y-93980000D01*
X113745000Y-97790000D02*
X115015000Y-96520000D01*
X111760000Y-97790000D02*
X113745000Y-97790000D01*
X113590000Y-142530000D02*
X120090000Y-142530000D01*
X113745000Y-100330000D02*
X115015000Y-101600000D01*
X111760000Y-100330000D02*
X113745000Y-100330000D01*
X111760000Y-118110000D02*
X114657500Y-118110000D01*
X111760000Y-129540000D02*
X111760000Y-120650000D01*
X116840000Y-134620000D02*
X111760000Y-129540000D01*
X125740000Y-134620000D02*
X116840000Y-134620000D01*
X106680000Y-96520000D02*
X109365489Y-99205489D01*
X109365489Y-99205489D02*
X114445489Y-99205489D01*
X129860000Y-90170000D02*
X129540000Y-90170000D01*
X114445489Y-99205489D02*
X116840000Y-101600000D01*
X129540000Y-90490000D02*
X129860000Y-90170000D01*
X129540000Y-90170000D02*
X127000000Y-92710000D01*
X105410000Y-83820000D02*
X105410000Y-90885000D01*
X105410000Y-90885000D02*
X104855000Y-91440000D01*
X113362500Y-91440000D02*
X117172500Y-87630000D01*
X106680000Y-91440000D02*
X113362500Y-91440000D01*
X104855000Y-96520000D02*
X105410000Y-97075000D01*
X105410000Y-97075000D02*
X105410000Y-104140000D01*
X113590000Y-147030000D02*
X120090000Y-147030000D01*
M02*
