%FSLAX45Y45*%
G04 Gerber Fmt 4.5, Leading zero omitted, Abs format (unit mm)*
G04 Created by KiCad (PCBNEW 6.0.1-79c1e3a40b~116~ubuntu20.04.1) date 2022-02-01 23:30:45*
%MOMM*%
%LPD*%
G01*
G04 APERTURE LIST*
%TA.AperFunction,Profile*%
%ADD10C,0.100000*%
%TD*%
%ADD11C,0.200000*%
G04 APERTURE END LIST*
D10*
X10287000Y-8001000D02*
X13970000Y-8001000D01*
X10668000Y-14859000D02*
G75*
G03*
X10668000Y-14859000I-127000J0D01*
G01*
X13970000Y-8001000D02*
X13970000Y-15113000D01*
X13970000Y-15113000D02*
X10287000Y-15113000D01*
X13843000Y-9525000D02*
G75*
G03*
X13843000Y-9525000I-127000J0D01*
G01*
X10287000Y-15113000D02*
X10287000Y-8001000D01*
X10668000Y-11049000D02*
G75*
G03*
X10668000Y-11049000I-127000J0D01*
G01*
X11049000Y-13462000D02*
G75*
G03*
X11049000Y-13462000I0J0D01*
G01*
X13843000Y-14859000D02*
G75*
G03*
X13843000Y-14859000I-127000J0D01*
G01*
D11*
X10539619Y-15428476D02*
X10539619Y-15228476D01*
X10587238Y-15228476D01*
X10615810Y-15238000D01*
X10634857Y-15257048D01*
X10644381Y-15276095D01*
X10653905Y-15314190D01*
X10653905Y-15342762D01*
X10644381Y-15380857D01*
X10634857Y-15399905D01*
X10615810Y-15418952D01*
X10587238Y-15428476D01*
X10539619Y-15428476D01*
X10739619Y-15428476D02*
X10739619Y-15295143D01*
X10739619Y-15333238D02*
X10749143Y-15314190D01*
X10758667Y-15304667D01*
X10777714Y-15295143D01*
X10796762Y-15295143D01*
X10863429Y-15428476D02*
X10863429Y-15295143D01*
X10863429Y-15228476D02*
X10853905Y-15238000D01*
X10863429Y-15247524D01*
X10872952Y-15238000D01*
X10863429Y-15228476D01*
X10863429Y-15247524D01*
X10987238Y-15428476D02*
X10968190Y-15418952D01*
X10958667Y-15399905D01*
X10958667Y-15228476D01*
X11092000Y-15428476D02*
X11072952Y-15418952D01*
X11063429Y-15399905D01*
X11063429Y-15228476D01*
X11320571Y-15428476D02*
X11320571Y-15228476D01*
X11387238Y-15371333D01*
X11453905Y-15228476D01*
X11453905Y-15428476D01*
X11634857Y-15428476D02*
X11634857Y-15323714D01*
X11625333Y-15304667D01*
X11606286Y-15295143D01*
X11568190Y-15295143D01*
X11549143Y-15304667D01*
X11634857Y-15418952D02*
X11615809Y-15428476D01*
X11568190Y-15428476D01*
X11549143Y-15418952D01*
X11539619Y-15399905D01*
X11539619Y-15380857D01*
X11549143Y-15361809D01*
X11568190Y-15352286D01*
X11615809Y-15352286D01*
X11634857Y-15342762D01*
X11730095Y-15295143D02*
X11730095Y-15495143D01*
X11730095Y-15304667D02*
X11749143Y-15295143D01*
X11787238Y-15295143D01*
X11806286Y-15304667D01*
X11815809Y-15314190D01*
X11825333Y-15333238D01*
X11825333Y-15390381D01*
X11815809Y-15409428D01*
X11806286Y-15418952D01*
X11787238Y-15428476D01*
X11749143Y-15428476D01*
X11730095Y-15418952D01*
X11911048Y-15409428D02*
X11920571Y-15418952D01*
X11911048Y-15428476D01*
X11901524Y-15418952D01*
X11911048Y-15409428D01*
X11911048Y-15428476D01*
X11911048Y-15304667D02*
X11920571Y-15314190D01*
X11911048Y-15323714D01*
X11901524Y-15314190D01*
X11911048Y-15304667D01*
X11911048Y-15323714D01*
M02*
