M48
; DRILL file {KiCad 6.0.1-79c1e3a40b~116~ubuntu20.04.1} date Tue 01 Feb 2022 11:30:22 PM PST
; FORMAT={-:-/ absolute / metric / decimal}
; #@! TF.CreationDate,2022-02-01T23:30:22-08:00
; #@! TF.GenerationSoftware,Kicad,Pcbnew,6.0.1-79c1e3a40b~116~ubuntu20.04.1
; #@! TF.FileFunction,Plated,1,2,PTH
FMAT,2
METRIC
; #@! TA.AperFunction,Plated,PTH,ViaDrill
T1C0.400
; #@! TA.AperFunction,Plated,PTH,ComponentDrill
T2C0.900
; #@! TA.AperFunction,Plated,PTH,ComponentDrill
T3C1.000
; #@! TA.AperFunction,Plated,PTH,ComponentDrill
T4C1.100
%
G90
G05
T1
X106.68Y-91.44
X106.68Y-96.52
X116.84Y-96.52
X116.84Y-101.6
X116.84Y-118.11
X119.38Y-86.36
X119.38Y-88.9
X129.54Y-95.25
X131.76Y-90.17
X132.08Y-95.25
T2
X105.41Y-83.82
X105.41Y-104.14
X107.95Y-83.82
X107.95Y-104.14
X128.27Y-146.05
X130.81Y-146.05
X132.08Y-85.09
X134.62Y-85.09
X137.16Y-85.09
T3
X111.76Y-85.09
X111.76Y-87.63
X111.76Y-90.17
X111.76Y-92.71
X111.76Y-95.25
X111.76Y-97.79
X111.76Y-100.33
X111.76Y-102.87
X111.76Y-105.41
X111.76Y-107.95
X111.76Y-110.49
X111.76Y-113.03
X111.76Y-115.57
X111.76Y-118.11
X111.76Y-120.65
X125.74Y-134.62
X127.0Y-85.09
X127.0Y-87.63
X127.0Y-90.17
X127.0Y-92.71
X127.0Y-95.25
X127.0Y-97.79
X127.0Y-100.33
X127.0Y-102.87
X127.0Y-105.41
X127.0Y-107.95
X127.0Y-110.49
X127.0Y-113.03
X127.0Y-115.57
X127.0Y-118.11
X127.0Y-120.65
X133.34Y-134.62
T4
X113.59Y-142.53
X113.59Y-147.03
X120.09Y-142.53
X120.09Y-147.03
T0
M30
